<ttFont>
<head>
    <!-- Most of this table will be recalculated by the compiler -->
    <tableVersion value="1.0"/>
    <fontRevision value="2.001"/>
    <checkSumAdjustment value="0x653b1985"/>
    <magicNumber value="0x5f0f3cf5"/>
    <flags value="00000000 00000011"/>
    <unitsPerEm value="1000"/>
    <created value="Sat Mar 11 02:09:37 2006"/>
    <modified value="Sat Mar 11 02:09:37 2006"/>
    <xMin value="-68"/>
    <yMin value="-347"/>
    <xMax value="5084"/>
    <yMax value="902"/>
    <macStyle value="00000000 00000000"/>
    <lowestRecPPEM value="3"/>
    <fontDirectionHint value="2"/>
    <indexToLocFormat value="0"/>
    <glyphDataFormat value="0"/>
  </head>
          <CharString index="0">
            -85 callsubr
            -105 callgsubr
            -110 rlineto
            return
          </CharString>
          <CharString index="1">
            -97 callgsubr
            -95 callgsubr
            -93 callsubr
            return
          </CharString>
          <CharString index="2">
            19 -106 callgsubr
            return
          </CharString>
          <CharString index="3">
            345 -106 callsubr
            return
          </CharString>
          <CharString index="4">
            356 252 rmoveto
            -72 -9 -120 -95 -32 hhcurveto
            -55 -24 49 48 72 64 23 61 37 45 -8 -17 33 hvcurveto
            210 -240 rmoveto
            -100 callgsubr
            return
          </CharString>
          <CharString index="5">
            -101 callgsubr
            -37 callgsubr
            return
          </CharString>
          <CharString index="6">
            -35 callgsubr
            34 56 -72 callgsubr
            -93 -122 -61 callgsubr
            return
          </CharString>
          <CharString index="7">
            65 -1 64 -1 65 vhcurveto
            -93 9 rlineto
            1 -61 2 -60 -61 vvcurveto
            -37 -3 -20 -2 -37 vhcurveto
            return
          </CharString>
          <CharString index="8">
            120 59 104 109 51 -25 89 -35 37 hvcurveto
            18 15 18 14 25 hhcurveto
            26 23 -16 -17 19 hvcurveto
            38 82 rlineto
            23 -31 -37 18 -39 hhcurveto
            -56 -42 -38 -45 -29 hvcurveto
            return
          </CharString>
          <CharString index="9">
            rmoveto
            -150 78 -130 -86 39 -63 97 65 99 -63 rlineto
            endchar
          </CharString>
          <CharString index="10">
            518 -99 callgsubr
            return
          </CharString>
          <CharString index="11">
            10 -27 -30 7 -29 hhcurveto
            -119 -76 -117 -111 -63 41 -65 49 -39 hvcurveto
            -44 -41 -39 -131 -11 -61 96 -3 rcurveline
            26 26 52 22 37 hhcurveto
            return
          </CharString>
          <CharString index="12">
            -96 callgsubr
            71 58 return
          </CharString>
          <CharString index="13">
            rmoveto
            -72 -9 -120 -95 -32 hhcurveto
            -55 -24 49 48 72 64 23 61 37 45 -8 -17 33 hvcurveto
            210 -240 rmoveto
            return
          </CharString>
          <CharString index="14">
            -85 callgsubr
            -43 36 26 -122 2 hhcurveto
            return
          </CharString>
          <CharString index="15">
            418 -102 callgsubr
            return
          </CharString>
          <CharString index="16">
            hhcurveto
            -94 -59 -89 callsubr
            return
          </CharString>
          <CharString index="17">
            21 callsubr
            -9 callsubr
            11 98 rlineto
            2 19 4 11 19 vvcurveto
            23 -4 13 -2 23 vhcurveto
            -12 118 rlineto
            -91 hlineto
            7 -179 rlineto
            1 -33 3 -19 -33 vvcurveto
            -54 -14 -29 -9 -52 vhcurveto
            -47 -271 24 callsubr
            -9 callgsubr
            return
          </CharString>
          <CharString index="18">
            -64 -61 -61 hvcurveto
            55 -56 rlineto
            33 27 56 58 45 hhcurveto
            43 91 -43 -51 hvcurveto
            -2 vlineto
            return
          </CharString>
          <CharString index="19">
            -76 callsubr
            40 53 -34 hvcurveto
            return
          </CharString>
          <CharString index="20">
            36 callgsubr
            hintmask 10100001
            -107 callsubr
            hintmask 01100001
            -82 callsubr
            hintmask 00010100
            return
          </CharString>
          <CharString index="21">
            rmoveto
            -52 27 48 -36 60 hhcurveto
            63 54 38 53 31 hvcurveto
            -70 48 rlineto
            -29 -14 -24 -34 -36 hhcurveto
            return
          </CharString>
          <CharString index="22">
            434 465 rmoveto
            -2 -45 -11 -45 -15 -42 rrcurveto
            return
          </CharString>
          <CharString index="23">
            75 212 -112 -33 callsubr
            return
          </CharString>
          <CharString index="24">
            249 39 rmoveto
            -9 17 -13 14 -9 17 -45 81 7 97 -2 91 90 15 rcurveline
            -30 callgsubr
            return
          </CharString>
          <CharString index="25">
            88 -26 23 161 27 161 26 160 rlinecurve
            return
          </CharString>
          <CharString index="26">
            10 -24 -26 4 -26 hhcurveto
            -98 -128 -56 -127 -95 60 -58 81 return
          </CharString>
          <CharString index="27">
            rmoveto
            150 -78 130 86 -39 63 -97 -65 -99 63 rlineto
            endchar
          </CharString>
          <CharString index="28">
            -199 -192 21 190 12 callsubr
            74 90 -81 46 callgsubr
            hintmask 0110010000000000
            -13 callsubr
            hintmask 0110100000000000
            -100 callsubr
            hintmask 0110010000000000
            -71 callgsubr
            hintmask 0111000000000000
            -99 -107 hlineto
            hintmask 1010000010000000
            282 -276 rmoveto
            25 -3 14 -1 25 vhcurveto
            hintmask 1010000100000000
            -1 callsubr
            hintmask 1010000001000000
            33 callgsubr
            hintmask 1010000010000000
            -38 callsubr
            hintmask 1010001000000000
            -91 -94 hlineto
            endchar
          </CharString>
          <CharString index="29">
            70 callsubr
            -77 callsubr
            return
          </CharString>
          <CharString index="30">
            vlineto
            -70 -406 rlineto
            94 hlineto
            17 126 35 78 65 91 rrcurveto
            return
          </CharString>
          <CharString index="31">
            -20 -37 -42 -17 -43 hhcurveto
            -65 -46 return
          </CharString>
          <CharString index="32">
            -51 callsubr
            143 -29 callsubr
            26 97 hintmask 1010000010000000
            -107 callsubr
            hintmask 0110000010000000
            -82 callsubr
            hintmask 0000100100000000
            -155 244 -6 callsubr
            hintmask 0000010000000000
            -80 callgsubr
            hintmask 0001001000000000
            -46 callsubr
          </CharString>
          <CharString index="33">
            3 21 356 118 -118 123 -108 108 35 -20 hstemhm
            127 119 -96 96 211 102 -99 99 210 131 -131 132 hintmask 1100101101000000
            900 35 rmoveto
            hintmask 1010101100100000
            1 29 72 callgsubr
            -69 -57 -57 -55 -34 vhcurveto
            hintmask 1100110101000000
            54 -36 30 callgsubr
            -12 144 -219 -125 45 -86 106 47 rlineto
            -371 vlineto
            120 5 rlineto
            5 callgsubr
            hintmask 1001101011000000
            1 -61 1 -62 1 -61 108 13 rcurveline
            -9 219 rlineto
            66 31 87 38 callsubr
            endchar
          </CharString>
          <CharString index="34">
            -343 -80 21 7 -21 312 97 -94 94 -91 93 343 -20 hstemhm
            48 108 -108 111 -106 100 -95 93 -93 110 -107 113 -110 110 hintmask 1010011000000000
            156 239 rmoveto
            hintmask 1010010001000000
            -98 hlineto
            hintmask 0101010000100000
            -312 90 vlineto
            7 120 rlineto
            hintmask 1001010100000000
            1 24 3 14 25 vvcurveto
            hintmask 1010011000000000
            43 -2 43 -1 43 vhcurveto
            -1 442 rmoveto
            -100 -19 rlineto
            hintmask 1001010000010000
            6 -99 rlineto
            hintmask 1001010000001000
            1 -20 2 -11 -19 vvcurveto
            hintmask 1001010000010000
            -59 -2 -60 -1 -59 vhcurveto
            hintmask 1000110010000000
            94 3 rlineto
            hintmask 1001010000100000
            13 139 rlineto
            hintmask 1001010000001000
            2 27 4 15 27 vvcurveto
            hintmask 1001010000100000
            -1 18 -3 9 -2 18 rrcurveto
            endchar
          </CharString>
          <CharString index="35">
            hstemhm
            hintmask 01100000
            436 90 rmoveto
            hintmask 10100000
            -11 callgsubr
            hintmask 01010000
            -69 callgsubr
            hintmask 10100000
            39 callgsubr
            return
          </CharString>
          <CharString index="36">
            -10 -187 rlineto
            90 hlineto
            11 173 return
          </CharString>
          <CharString index="37">
            0 callsubr
            106 -29 callsubr
            32 100 -89 100 268 100 hintmask 1100000011000000
            -67 callsubr
            hintmask 1100000101000000
            -104 callgsubr
            hintmask 0001001000000000
            -147 480 -68 callsubr
          </CharString>
          <CharString index="38">
            -59 callgsubr
            hstemhm
            return
          </CharString>
          <CharString index="39">
            -6 callsubr
            hintmask 0000100000000000
            -80 callgsubr
            hintmask 0010010000000000
            -46 callsubr
          </CharString>
          <CharString index="40">
            411 -47 callsubr
            return
          </CharString>
          <CharString index="41">
            -51 callsubr
            112 13 callsubr
            26 97 hintmask 10100010
            -107 callsubr
            hintmask 01100010
            -82 callsubr
            hintmask 00010100
            -373 188 -86 callsubr
            hintmask 00011000
            -10 callgsubr
          </CharString>
          <CharString index="42">
            -14 callsubr
            134 -29 callsubr
            42 41 callgsubr
            hintmask 1100000010000000
            -13 callsubr
            hintmask 1100000100000000
            -100 callsubr
            hintmask 1100000010000000
            -79 callgsubr
            hintmask 0001001000000000
            45 430 -68 callsubr
          </CharString>
          <CharString index="43">
            454 rmoveto
            -100 27 -132 -328 -118 241 -116 -27 -44 -198 -139 394 -91 -36 172 -503 rlineto
            127 hlineto
            46 231 116 -231 92 -11 rlineto
            return
          </CharString>
          <CharString index="44">
            -87 -26 callsubr
            43 36 callsubr
            52 callgsubr
            hintmask 00011110
            -105 callsubr
            hintmask 10100000
            124 -405 -4 callsubr
          </CharString>
          <CharString index="45">
            53 -47 44 -53 vhcurveto
            48 -99 rmoveto
            -21 -28 -18 -19 -22 -19 16 23 31 15 17 32 27 14 -23 -25 vhcurveto
            endchar
          </CharString>
          <CharString index="46">
            32 callsubr
            63 -94 callgsubr
            329 476 -98 callsubr
          </CharString>
          <CharString index="47">
            31 22 49 63 44 hhcurveto
            80 18 -212 -60 hvcurveto
            return
          </CharString>
          <CharString index="48">
            -382 -198 -21 238 21 -1 -20 643 -20 hstemhm
            -56 86 0 104 -92 41 callgsubr
            hintmask 01010001
            -13 callsubr
            hintmask 01010010
            -100 callsubr
            hintmask 01010001
            -71 callgsubr
            hintmask 01010100
            -99 -107 hlineto
            hintmask 10101000
            31 -521 -19 callgsubr
          </CharString>
          <CharString index="49">
            7 -198 -21 220 89 -51 -20 454 36 callgsubr
            164 88 hintmask 10111100
            -85 callsubr
            hintmask 11011100
            -105 callgsubr
            -109 rlineto
            -39 -25 -38 -39 -49 vvcurveto
            -66 68 -1 callgsubr
            -30 -38 24 33 41 53 39 31 19 hvcurveto
            22 147 23 146 24 147 rrcurveto
            endchar
          </CharString>
          <CharString index="50">
            -1 -37 -1 -36 -36 -8 0 -9 -8 vvcurveto
            -53 11 rlineto
            -88 vlineto
            return
          </CharString>
          <CharString index="51">
            0 callsubr
            68 -51 callgsubr
            32 100 -89 100 7 -4 callgsubr
            26 100 hintmask 1100000100001000
            -67 callsubr
            hintmask 1100001000001000
            -104 callgsubr
            hintmask 0011110010010000
            -270 359 -55 callgsubr
            hintmask 0011110001100000
            -40 callsubr
          </CharString>
          <CharString index="52">
            -255 -20 21 457 21 96 -20 115 -11 callsubr
            hintmask 11110010
            -83 callsubr
            hintmask 11111000
            26 1 26 25 vvcurveto
            hintmask 11110010
            -23 callgsubr
            hintmask 11110001
            -12 callsubr
            93 478 -31 callsubr
          </CharString>
          <CharString index="53">
            0 callsubr
            58 21 4 -21 144 -20 39 -2 callgsubr
            hintmask 1100000110000000
            -67 callsubr
            hintmask 1100001010000000
            -104 callgsubr
            hintmask 0010100000000000
            -146 371 rmoveto
            hintmask 0010010000000000
            -5 callgsubr
            hintmask 0001100000000000
            15 callsubr
          </CharString>
          <CharString index="54">
            386 -89 callgsubr
            return
          </CharString>
          <CharString index="55">
            43 69 -27 -52 -54 -52 -13 -44 -40 -47 7 29 -29 hvcurveto
            return
          </CharString>
          <CharString index="56">
            7 1 89 -86 -21 490 -20 return
          </CharString>
          <CharString index="57">
            -51 callsubr
            113 -25 callsubr
            26 97 hintmask 10100100
            -107 callsubr
            hintmask 01100100
            -82 callsubr
            hintmask 00011000
            -81 172 -98 callsubr
          </CharString>
          <CharString index="58">
            21 128 80 callsubr
            hintmask 11100110
            515 14 rmoveto
            hintmask 11100101
            -90 callsubr
            hintmask 11100110
            hintmask 00011000
            return
          </CharString>
          <CharString index="59">
            62 callgsubr
            641 -20 116 21 75 -20 73 86 callgsubr
            hintmask 11010010
            13 callgsubr
            hintmask 11010100
            -1 callsubr
            hintmask 11010001
            33 callgsubr
            hintmask 11010010
            -73 callgsubr
            hintmask 00101000
            85 358 -98 callsubr
          </CharString>
          <CharString index="60">
            207 rmoveto
            6 callgsubr
            vhcurveto
            return
          </CharString>
          <CharString index="61">
            39 23 -41 44 hhcurveto
            43 49 36 42 11 hvcurveto
            endchar
          </CharString>
          <CharString index="62">
            -7 -44 -10 -24 -45 vvcurveto
            -47 5 -26 3 -46 vhcurveto
            return
          </CharString>
          <CharString index="63">
            81 callgsubr
            49 -69 callsubr
            19 97 -86 95 -83 74 hintmask 1101011010000000
            43 callsubr
            hintmask 1011011100000000
            -45 callsubr
            hintmask 1011011001000000
            -78 callgsubr
            hintmask 1101011010000000
            hintmask 1010111010000000
            -51 257 -90 callgsubr
          </CharString>
          <CharString index="64">
            -55 callgsubr
            endchar
          </CharString>
          <CharString index="65">
            592 -86 callgsubr
            return
          </CharString>
          <CharString index="66">
            -20 21 574 -11 callsubr
            hintmask 11001000
            -83 callsubr
            hintmask 11100000
            25 callgsubr
            hintmask 11001000
            -90 4 rlineto
            hintmask 11100000
            -57 callsubr
            hintmask 11010000
            54 -9 rlineto
            hintmask 11000100
            -12 callsubr
            endchar
          </CharString>
          <CharString index="67">
            236 -10 -43 callsubr
          </CharString>
          <CharString index="68">
            -14 callsubr
            86 5 callsubr
            42 41 callgsubr
            hintmask 11000001
            -13 callsubr
            hintmask 11000010
            -100 callsubr
            hintmask 11000001
            -79 callgsubr
            hintmask 00101000
            46 321 2 callsubr
          </CharString>
          <CharString index="69">
            -73 callgsubr
            -13 35 callgsubr
            104 vlineto
            return
          </CharString>
          <CharString index="70">
            62 callgsubr
            833 -20 hstemhm
            43 90 -81 46 callgsubr
            hintmask 11001000
            13 callgsubr
            hintmask 11010000
            -1 callsubr
            hintmask 11000100
            33 callgsubr
            hintmask 11001000
            -38 callsubr
            hintmask 11100000
            -91 -94 hlineto
            endchar
          </CharString>
          <CharString index="71">
            -86 callsubr
            hintmask 00110000
            -10 callgsubr
          </CharString>
          <CharString index="72">
            48 callgsubr
            21 -69 callsubr
            hintmask 11101100
            -97 callsubr
            hintmask 11011100
            -210 253 -90 callgsubr
          </CharString>
          <CharString index="73">
            -25 callsubr
            24 104 hintmask 11001000
            -103 callgsubr
            hintmask 00110000
            return
          </CharString>
          <CharString index="74">
            -18 -29 -183 rlineto
            return
          </CharString>
          <CharString index="75">
            700 rmoveto
            70 -119 33 -135 -138 vvcurveto
            -143 -37 -141 -66 -126 vhcurveto
            94 -39 rlineto
            58 143 40 148 155 vvcurveto
            147 -36 140 -59 134 vhcurveto
            endchar
          </CharString>
          <CharString index="76">
            71 callgsubr
            endchar
          </CharString>
          <CharString index="77">
            -14 callsubr
            46 40 callgsubr
            34 91 -83 41 callgsubr
            hintmask 11101001
            -13 callsubr
            hintmask 11101010
            -100 callsubr
            hintmask 11101001
            -79 callgsubr
            hintmask 11110100
            86 416 -27 callsubr
          </CharString>
          <CharString index="78">
            77 -36 36 -36 62 -4 -20 34 -20 hstemhm
            return
          </CharString>
          <CharString index="79">
            273 rmoveto
            -75 -61 -89 -81 -81 -30 99 66 71 82 62 67 74 30 -69 -65 vhcurveto
            136 -513 rmoveto
            -29 281 rlineto
            -6 55 -8 31 55 vvcurveto
            42 7 24 4 42 vhcurveto
            21 215 -104 18 -17 -67 rlineto
            31 -16 -41 8 -32 hhcurveto
            -132 -137 -94 -140 -118 97 -127 125 56 45 29 48 28 hvcurveto
            39 -354 rlineto
            endchar
          </CharString>
          <CharString index="80">
            rmoveto
            -259 -80 259 hlineto
            endchar
          </CharString>
          <CharString index="81">
            -10 callsubr
            28 -20 return
          </CharString>
          <CharString index="82">
            -8 callsubr
            hstemhm
            return
          </CharString>
          <CharString index="83">
            -38 callgsubr
            hintmask 0010100010000000
            19 callgsubr
            hintmask 0010110000000000
            -15 -222 rlineto
            hintmask 0010101000000000
            24 callgsubr
            hintmask 1001000000000000
            return
          </CharString>
          <CharString index="84">
            -14 callgsubr
            -110 34 -71 86 -42 hvcurveto
            -12 24 26 -8 27 hhcurveto
            47 38 25 41 22 hvcurveto
            return
          </CharString>
          <CharString index="85">
            -3 callgsubr
            92 -69 callsubr
            hintmask 01101011
            436 90 rmoveto
            hintmask 10101011
            -11 callgsubr
            hintmask 01011011
            -69 callgsubr
            hintmask 10101011
            39 callgsubr
            hintmask 01100111
            return
          </CharString>
          <CharString index="86">
            393 -85 rmoveto
            190 115 140 183 170 -104 157 -183 -189 -134 -137 -188 -185 113 -140 192 hvcurveto
            44 580 rmoveto
            125 64 -166 -104 -129 -93 -119 -148 -144 -85 125 134 164 124 95 157 hvcurveto
            return
          </CharString>
          <CharString index="87">
            -38 callgsubr
            hintmask 11000100
            19 callgsubr
            hintmask 11100000
            -15 -222 rlineto
            hintmask 11010000
            24 callgsubr
            endchar
          </CharString>
          <CharString index="88">
            -25 callsubr
            26 107 hintmask 11001000
            -92 callsubr
            hintmask 00110000
            return
          </CharString>
          <CharString index="89">
            -25 callsubr
            16 107 hintmask 11001000
            -92 callgsubr
            hintmask 00110000
            return
          </CharString>
          <CharString index="90">
            30 -21 652 -20 hstem
            138 87 174 87 vstem
            138 53 rmoveto
            -44 130 vlineto
            -43 174 rlineto
            347 174 -347 vlineto
            -44 -174 rlineto
            131 44 hlineto
            -44 43 44 130 rlineto
            348 vlineto
            -174 87 -174 -87 rlineto
            -348 vlineto
            43 -130 rlineto
            endchar
          </CharString>
          <CharString index="91">
            690 rmoveto
            -98 hlineto
            -34 -221 rlineto
            return
          </CharString>
          <CharString index="92">
            -147 417 80 148 84 hstem
            45 78 0 151 0 79 vstem
            204 417 rmoveto
            74 75 76 73 104 -89 59 -89 55 callgsubr
            -6 228 rmoveto
            36 40 -36 -37 -49 -42 -26 -44 -36 -29 35 34 46 29 33 46 hvcurveto
            endchar
          </CharString>
          <CharString index="93">
            33 callsubr
            442 -20 return
          </CharString>
          <CharString index="94">
            134 35 callgsubr
            return
          </CharString>
          <CharString index="95">
            3 -134 2 -97 14 -72 69 -72 rlinecurve
            return
          </CharString>
          <CharString index="96">
            -20 hstemhm
            83 92 -91 91 -90 93 -91 94 return
          </CharString>
          <CharString index="97">
            -223 -21 212 -20 return
          </CharString>
          <CharString index="98">
            113 -23 252 -156 -66 -45 -24 -49 -43 vhcurveto
            return
          </CharString>
          <CharString index="99">
            21 128 -20 return
          </CharString>
          <CharString index="100">
            -263 321 87 -87 94 -92 88 -85 82 hstemhm
            hintmask 00100000
            276 412 rmoveto
            hintmask 10000000
            -1 -43 -44 -3 -43 hhcurveto
            hintmask 01000000
            -42 -48 5 2 -43 hvcurveto
            5 -87 rlineto
            -2 22 27 -5 22 hhcurveto
            hintmask 00010000
            65 65 3 2 65 hvcurveto
            endchar
          </CharString>
          <CharString index="101">
            rmoveto
            -24 -6 -25 -12 -23 hhcurveto
            return
          </CharString>
          <CharString index="102">
            27 -45 25 -128 0 vvcurveto
            return
          </CharString>
          <CharString index="103">
            rmoveto
            hintmask 11000000
            -84 callsubr
            endchar
          </CharString>
          <CharString index="104">
            10 44 callsubr
            return
          </CharString>
          <CharString index="105">
            45 17 -56 -33 -39 -15 -97 -63 hvcurveto
            316 505 rmoveto
            -23 callsubr
            return
          </CharString>
          <CharString index="106">
            -7 127 rlineto
            -90 hlineto
            6 -115 rlineto
            return
          </CharString>
          <CharString index="107">
            -11 1 73 334 82 return
          </CharString>
          <CharString index="108">
            -16 callsubr
            hintmask 10110000
            -45 callsubr
            hintmask 10100100
            -78 callgsubr
            endchar
          </CharString>
          <CharString index="109">
            rmoveto
            hintmask 00100100
            -5 callgsubr
            hintmask 00011000
            15 callsubr
          </CharString>
          <CharString index="110">
            508 68 -49 -21 73 88 callsubr
            hstem
            287 695 -27 callsubr
          </CharString>
          <CharString index="111">
            565 13 callsubr
            hintmask 10100000
            8 653 -86 callsubr
            hintmask 11000000
            -10 callgsubr
          </CharString>
          <CharString index="112">
            21 4 -21 144 -20 39 -20 hstemhm
            return
          </CharString>
          <CharString index="113">
            369 rmoveto
            -89 vlineto
            hintmask 10101000
            43 20 rlineto
            -302 vlineto
            112 17 rlineto
            327 vlineto
            51 30 rlineto
            83 vlineto
            -61 -24 rlineto
            hintmask 11000100
            43 259 rlineto
            -98 hlineto
            -46 -302 rlineto
            endchar
          </CharString>
          <CharString index="114">
            49 callsubr
            -1 -3 -2 0 -3 hhcurveto
            return
          </CharString>
          <CharString index="115">
            23 callgsubr
            46 -7 9 -51 -39 vvcurveto
            -43 -11 -96 -61 11 callsubr
            -39 78 callsubr
            return
          </CharString>
          <CharString index="116">
            557 -90 callgsubr
          </CharString>
          <CharString index="117">
            238 -47 callgsubr
            return
          </CharString>
          <CharString index="118">
            vhcurveto
            319 520 rmoveto
            31 callgsubr
            return
          </CharString>
          <CharString index="119">
            21 622 -20 hstemhm
            30 104 -92 41 callgsubr
            return
          </CharString>
          <CharString index="120">
            76 67 40 callsubr
            return
          </CharString>
          <CharString index="121">
            91 -90 89 return
          </CharString>
          <CharString index="122">
            141 -107 rlineto
            endchar
          </CharString>
          <CharString index="123">
            hstemhm
            32 -16 callgsubr
            return
          </CharString>
          <CharString index="124">
            71 99 134 113 return
          </CharString>
          <CharString index="125">
            1 75 -74 72 197 21 113 81 22 68 54 63 46 -20 hstemhm
            return
          </CharString>
          <CharString index="126">
            191 -190 51 87 51 hstemhm
            return
          </CharString>
          <CharString index="127">
            -88 callsubr
            359 95 rlineto
            -93 callgsubr
            return
          </CharString>
          <CharString index="128">
            1 17 0 16 17 vvcurveto
            return
          </CharString>
          <CharString index="129">
            -358 290 -21 40 21 53 -20 65 -20 hstem
            146 269 rmoveto
            0 callgsubr
            endchar
          </CharString>
          <CharString index="130">
            rmoveto
            75 210 90 callgsubr
            -181 rlineto
            return
          </CharString>
          <CharString index="131">
            rlineto
            94 hlineto
            10 77 16 141 60 54 rrcurveto
            return
          </CharString>
          <CharString index="132">
            1 95 325 82 return
          </CharString>
          <CharString index="133">
            -25 callsubr
            hintmask 11000000
            return
          </CharString>
          <CharString index="134">
            -2 61 callgsubr
            return
          </CharString>
          <CharString index="135">
            -141 21 846 -20 hstem
            return
          </CharString>
          <CharString index="136">
            22 279 -112 -23 -9 -239 -3 return
          </CharString>
          <CharString index="137">
            rmoveto
            -62 -30 78 43 52 59 52 49 hvcurveto
            return
          </CharString>
          <CharString index="138">
            -15 -6 callgsubr
            return
          </CharString>
          <CharString index="139">
            -87 -1 36 callsubr
            return
          </CharString>
          <CharString index="140">
            -382 19 21 return
          </CharString>
          <CharString index="141">
            -389 28 callgsubr
            103 65 callgsubr
            endchar
          </CharString>
          <CharString index="142">
            hvcurveto
            66 -52 rlineto
            28 20 43 44 37 hhcurveto
            hintmask 1000110010110000
            57 50 -58 62 hhcurveto
            58 45 53 44 30 hvcurveto
            return
          </CharString>
          <CharString index="143">
            81 340 83 return
          </CharString>
          <CharString index="144">
            hvcurveto
            316 505 rmoveto
            -14 callgsubr
            return
          </CharString>
          <CharString index="145">
            79 71 29 -72 -61 vhcurveto
            -227 vlineto
            return
          </CharString>
          <CharString index="146">
            -20 hstem
            290 637 -98 callsubr
          </CharString>
          <CharString index="147">
            -20 23 -20 hstemhm
            return
          </CharString>
          <CharString index="148">
            82 callgsubr
            -88 callsubr
            return
          </CharString>
          <CharString index="149">
            153 -55 callgsubr
            hintmask 0011110110000000
            -40 callsubr
          </CharString>
          <CharString index="150">
            168 -16 callsubr
            return
          </CharString>
          <CharString index="151">
            21 368 72 callsubr
            return
          </CharString>
          <CharString index="152">
            113 -106 82 -78 90 -79 67 return
          </CharString>
          <CharString index="153">
            -30 callgsubr
            hintmask 11111000
            25 callgsubr
            return
          </CharString>
          <CharString index="154">
            rmoveto
            72 -80 59 -67 -82 -54 -82 -76 -83 66 -52 83 76 58 92 70 vhcurveto
            return
          </CharString>
          <CharString index="155">
            -239 -21 236 -20 return
          </CharString>
          <CharString index="156">
            hlineto
            30 89 rlineto
            return
          </CharString>
          <CharString index="157">
            -20 hstemhm
            458 62 callsubr
            return
          </CharString>
          <CharString index="158">
            110 16 183 0 103 return
          </CharString>
          <CharString index="159">
            56 37 35 57 hvcurveto
            return
          </CharString>
          <CharString index="160">
            90 callsubr
            96 0 166 -158 166 -8 123 -71 64 return
          </CharString>
          <CharString index="161">
            -26 callsubr
            42 61 callgsubr
            hstemhm
            return
          </CharString>
          <CharString index="162">
            80 -65 63 hstemhm
            return
          </CharString>
          <CharString index="163">
            23 62 21 2 -21 414 -20 179 -20 hstemhm
            hintmask 10110000
            return
          </CharString>
          <CharString index="164">
            63 callgsubr
            98 0 169 -163 169 -5 125 return
          </CharString>
          <CharString index="165">
            rmoveto
            24 46 50 14 24 34 rrcurveto
            32 46 15 24 58 vvcurveto
            return
          </CharString>
          <CharString index="166">
            74 -350 119 340 hlineto
            return
          </CharString>
          <CharString index="167">
            14 callsubr
            hintmask 1111111010000000
            return
          </CharString>
          <CharString index="168">
            -6 25 -4 25 26 vvcurveto
            return
          </CharString>
          <CharString index="169">
            107 -102 104 return
          </CharString>
          <CharString index="170">
            133 -110 51 callsubr
            hintmask 10110101
            return
          </CharString>
          <CharString index="171">
            -44 -41 24 47 33 21 56 40 40 42 -35 -42 hvcurveto
            return
          </CharString>
          <CharString index="172">
            -294 -27 -37 -18 -20 -28 -36 rlinecurve
            -147 -186 return
          </CharString>
          <CharString index="173">
            -228 hhcurveto
            return
          </CharString>
          <CharString index="174">
            48 callsubr
            45 95 325 82 hstemhm
            return
          </CharString>
          <CharString index="175">
            62 vhcurveto
            4 49 callsubr
            -2 -2 -1 -2 hhcurveto
            return
          </CharString>
          <CharString index="176">
            -20 hstemhm
            483 62 callsubr
            return
          </CharString>
          <CharString index="177">
            -87 110 return
          </CharString>
          <CharString index="178">
            16 96 -79 -21 331 103 227 -20 hstemhm
            return
          </CharString>
          <CharString index="179">
            73 -56 67 20 -20 return
          </CharString>
          <CharString index="180">
            155 -112 112 -93 76 hintmask 10110000
            return
          </CharString>
          <CharString index="181">
            10 124 -109 109 225 77 return
          </CharString>
          <CharString index="182">
            68 -64 106 -106 109 51 70 70 75 return
          </CharString>
          <CharString index="183">
            -126 11 rlineto
            -85 vlineto
            152 -7 rlineto
            return
          </CharString>
          <CharString index="184">
            -36 -25 -16 -39 -27 -12 29 20 -10 vhcurveto
            return
          </CharString>
          <CharString index="185">
            -61 21 -55 hhcurveto
            return
          </CharString>
          <CharString index="186">
            hstemhm
            35 86 return
          </CharString>
          <CharString index="187">
            -20 hstemhm
            94 106 215 100 -100 101 return
          </CharString>
          <CharString index="188">
            179 -22 -88 330 66 callsubr
            return
          </CharString>
          <CharString index="189">
            60 57 63 59 43 -32 28 -40 8 return
          </CharString>
          <CharString index="190">
            hstemhm
            31 85 return
          </CharString>
          <CharString index="191">
            100 -92 100 271 100 hintmask 10111011
            return
          </CharString>
          <CharString index="192">
            -20 52 callgsubr
            return
          </CharString>
          <CharString index="193">
            53 callgsubr
            251 -20 return
          </CharString>
          <CharString index="194">
            617 rmoveto
            -217 -608 rlineto
            return
          </CharString>
          <CharString index="195">
            -20 56 80 -65 63 return
          </CharString>
          <CharString index="196">
            rmoveto
            -29 -24 -54 -34 return
          </CharString>
          <CharString index="197">
            -20 hstemhm
            22 return
          </CharString>
        <CharString name=".notdef">
          -370 endchar
        </CharString>
        <CharString name="A">
          -29 callgsubr
          hstem
          35 86 vstem
          -104 callsubr
          endchar
        </CharString>
        <CharString name="AE">
          -81 callgsubr
        </CharString>
        <CharString name="Aacute">
          -29 callgsubr
          25 -69 callsubr
          35 86 hintmask 0110110111000000
          -104 callsubr
          hintmask 1001001111000000
          -223 524 -90 callgsubr
        </CharString>
        <CharString name="Abreve">
          -29 callgsubr
          44 13 callsubr
          35 86 hintmask 0110110110000000
          -104 callsubr
          -349 620 -86 callsubr
          hintmask 1001011010000000
          -10 callgsubr
        </CharString>
        <CharString name="Acircumflex">
          -29 callgsubr
          45 -8 callsubr
          hstem
          35 86 vstem
          -104 callsubr
          -57 604 -98 callsubr
        </CharString>
        <CharString name="Adieresis">
          -29 callgsubr
          37 -51 callgsubr
          35 86 7 -4 callgsubr
          hintmask 0110111111010100
          -104 callsubr
          hintmask 1001011111100100
          -244 555 -55 callgsubr
          hintmask 1001011111011000
          -40 callsubr
        </CharString>
        <CharString name="Agrave">
          -29 callgsubr
          27 5 callsubr
          35 86 hintmask 0110110101000000
          -104 callsubr
          -109 567 rmoveto
          hintmask 1001010011000000
          -5 callgsubr
          hintmask 1001001101000000
          15 callsubr
        </CharString>
        <CharString name="Amacron">
          -29 callgsubr
          -13 68 3 88 callsubr
          79 callsubr
          hintmask 0110010011000000
          345 -97 callgsubr
          hintmask 1010101011000000
          -95 callgsubr
          hintmask 1001010011000000
          -93 callsubr
          hintmask 1001010101000000
          -90 662 -27 callsubr
        </CharString>
        <CharString name="Aogonek">
          -8 -206 88 131 77 191 68 82 90 hstemhm
          15 86 237 86 vstemhm
          557 35 -20 callgsubr
          111 -48 -83 120 -135 hhcurveto
          -95 -58 -89 callsubr
          hintmask 11111100
          -85 callgsubr
          34 -40 12 -67 15 -50 rrcurveto
          -55 -35 -47 -35 -60 vvcurveto
          -67 68 -50 68 callsubr
          -31 -41 26 34 55 86 34 45 4 hvcurveto
          -230 228 -88 callgsubr
          endchar
        </CharString>
        <CharString name="Aring">
          -29 callgsubr
          39 19 callsubr
          35 86 29 52 -51 191 -52 52 hintmask 0110110010100000
          -104 callsubr
          hintmask 1001001111010000
          -221 717 7 callgsubr
          hintmask 1001010011010000
          52 callsubr
          hintmask 1001001111010000
          -62 callsubr
        </CharString>
        <CharString name="Atilde">
          -29 callgsubr
          75 -29 callsubr
          35 86 hintmask 0110110010100000
          -104 callsubr
          hintmask 1001001001100000
          -110 676 -6 callsubr
          hintmask 1001000100100000
          -80 callgsubr
          hintmask 1001010010100000
          -46 callsubr
        </CharString>
        <CharString name="B">
          -83 71 callsubr
          12 63 callsubr
          228 -28 callgsubr
        </CharString>
        <CharString name="C">
          -81 25 callsubr
          hstem
          26 107 vstem
          -92 callsubr
          endchar
        </CharString>
        <CharString name="Cacute">
          -81 25 callsubr
          77 callgsubr
          26 107 hintmask 11101110
          -92 callsubr
          hintmask 11011110
          -239 510 -90 callgsubr
        </CharString>
        <CharString name="Ccaron">
          -81 25 callsubr
          62 -19 callsubr
          -342 596 -80 callsubr
        </CharString>
        <CharString name="Ccedilla">
          -81 67 callsubr
          26 107 134 98 hintmask 00111000
          -92 callsubr
          hintmask 11000100
          -254 -128 -65 callgsubr
        </CharString>
        <CharString name="Ccircumflex">
          -81 25 callsubr
          63 -19 callsubr
          -62 590 -98 callsubr
        </CharString>
        <CharString name="Cdotaccent">
          -81 25 callsubr
          55 -51 callgsubr
          26 107 104 60 callsubr
          -92 callsubr
          hintmask 1111111100000000
          -137 541 -43 callsubr
        </CharString>
        <CharString name="D">
          -87 10 107 236 85 228 53 callsubr
          hintmask 11110101
          212 117 rmoveto
          hintmask 11101001
          8 callsubr
          hintmask 11110101
          11 callgsubr
          hintmask 11110010
          79 265 hlineto
          endchar
        </CharString>
        <CharString name="Dcaron">
          -87 10 107 236 85 20 21 187 -20 24 53 callsubr
          hintmask 1111010101000000
          212 117 rmoveto
          hintmask 1111001001000000
          8 callsubr
          hintmask 1111010101000000
          11 callgsubr
          hintmask 1110110010000000
          79 265 hlineto
          187 183 -31 callsubr
        </CharString>
        <CharString name="Dcroat">
          -87 10 107 85 94 -90 85 -85 87 60 85 228 90 callsubr
          96 0 82 -74 85 116 80 -71 68 hintmask 1001111010100000
          469 207 rmoveto
          86 -71 vlineto
          133 344 31 callgsubr
          -39 78 callsubr
          11 callgsubr
          hintmask 1010111011000000
          79 195 hlineto
          -126 86 rmoveto
          -83 hlineto
          5 -82 rlineto
          hintmask 1100111010100000
          -2 16 35 -5 19 3 2 0 2 hhcurveto
          -34 -6 -20 -51 -42 hhcurveto
          hintmask 1010110100100000
          -66 -28 66 57 56 46 57 62 32 18 -35 -27 5 hvcurveto
          endchar
        </CharString>
        <CharString name="Delta">
          104 9 44 564 -20 hstem
          312 87 callsubr
          477 hlineto
          -173 608 rlineto
          -174 -434 rmoveto
          130 304 131 -434 rlineto
          -261 hlineto
          endchar
        </CharString>
        <CharString name="E">
          32 callgsubr
          hstem
          24 104 vstem
          -103 callgsubr
          endchar
        </CharString>
        <CharString name="Eacute">
          32 callgsubr
          45 -69 callsubr
          24 104 hintmask 11101110
          -103 callgsubr
          hintmask 11011110
          89 374 -90 callgsubr
        </CharString>
        <CharString name="Ebreve">
          32 callgsubr
          64 13 callsubr
          24 104 hintmask 11000100
          -103 callgsubr
          hintmask 00101000
          -27 470 -36 callsubr
        </CharString>
        <CharString name="Ecaron">
          32 callgsubr
          64 -34 callsubr
          -30 460 -80 callsubr
        </CharString>
        <CharString name="Ecircumflex">
          32 callgsubr
          65 -34 callsubr
          255 454 -98 callsubr
        </CharString>
        <CharString name="Edieresis">
          -16 12 callgsubr
          24 104 19 -4 callgsubr
          hintmask 1100001000000000
          -103 callgsubr
          hintmask 0011110100100000
          88 43 callgsubr
        </CharString>
        <CharString name="Edotaccent">
          -16 12 callgsubr
          24 104 92 60 callsubr
          -103 callgsubr
          hintmask 1111111100000000
          161 405 -43 callsubr
        </CharString>
        <CharString name="Egrave">
          32 callgsubr
          47 5 callsubr
          24 104 hintmask 11000010
          -103 callgsubr
          hintmask 00101000
          193 417 2 callsubr
        </CharString>
        <CharString name="Emacron">
          32 callgsubr
          7 40 callgsubr
          24 104 hintmask 11101100
          -103 callgsubr
          hintmask 11110100
          252 512 -27 callsubr
        </CharString>
        <CharString name="Eogonek">
          -16 -185 -21 207 89 341 70 hstem
          24 104 138 88 vstem
          464 47 rmoveto
          34 callgsubr
          20 callsubr
          -169 132 -100 143 7 7 0 1 8 hvcurveto
          -32 -20 -23 -31 -39 vvcurveto
          -64 68 -54 61 vhcurveto
          5 49 callsubr
          -1 -3 -3 0 -2 hhcurveto
          -31 -37 25 33 48 72 43 38 16 hvcurveto
          -67 282 -95 callsubr
          87 76 29 callgsubr
          -47 29 vhcurveto
          endchar
        </CharString>
        <CharString name="Eth">
          -76 callgsubr
        </CharString>
        <CharString name="Euro">
          -107 7 87 69 70 -70 71 -69 71 37 73 -68 69 74 87 hstemhm
          hintmask 10100110
          393 104 rmoveto
          -6 -21 -23 -4 -21 hhcurveto
          -52 -34 25 42 -27 hvcurveto
          hintmask 10010110
          95 4 rlineto
          hintmask 11001010
          21 68 -47 1 -48 2 -47 2 rlinecurve
          -1 35 rlineto
          154 hlineto
          17 73 rlineto
          hintmask 10100110
          -151 1 rlineto
          45 22 39 29 51 hhcurveto
          28 26 -8 -12 25 hvcurveto
          10 86 rlineto
          14 -32 -36 7 -35 hhcurveto
          -124 -109 66 callgsubr
          rlineto
          -120 35 75 -77 131 hhcurveto
          31 31 5 7 30 hvcurveto
          endchar
        </CharString>
        <CharString name="F">
          -248 -22 21 323 60 callgsubr
          hstemhm
          64 51 callgsubr
          hintmask 11001001
          337 -21 callgsubr
        </CharString>
        <CharString name="G">
          -72 -48 callgsubr
          16 callsubr
          hintmask 1001110100100000
          -91 callgsubr
          hintmask 0101101100010000
          -99 callsubr
          hintmask 0010110101000000
          -96 callsubr
          hintmask 0101110110000000
          -52 callsubr
          endchar
        </CharString>
        <CharString name="Gbreve">
          -72 -48 callgsubr
          35 76 67 -20 23 -20 16 callsubr
          hintmask 1001110000100100
          -91 callgsubr
          hintmask 0101101000100010
          -99 callsubr
          hintmask 0010110000101000
          -96 callsubr
          hintmask 0101110000110000
          -52 callsubr
          hintmask 0000000101000000
          -44 16 callgsubr
        </CharString>
        <CharString name="Gcircumflex">
          -72 -48 callgsubr
          36 21 128 -20 16 callsubr
          hintmask 1001110001001000
          -91 callgsubr
          hintmask 0101101001000100
          -99 callsubr
          hintmask 0010110001010000
          -96 callsubr
          hintmask 0101110001100000
          -52 callsubr
          hintmask 0000000110000000
          238 866 -98 callsubr
        </CharString>
        <CharString name="Gcommaaccent">
          -72 -26 callgsubr
          19 -20 62 14 callgsubr
          26 -21 171 -20 16 callsubr
          hintmask 1001011000100100
          -91 callgsubr
          hintmask 0101010100100010
          -99 callsubr
          hintmask 0010011000101000
          -96 callsubr
          hintmask 0101011000110000
          -52 callsubr
          hintmask 0000100011000000
          89 935 38 callgsubr
        </CharString>
        <CharString name="Gdotaccent">
          -72 -48 callgsubr
          28 -51 callgsubr
          32 108 52 14 callsubr
          69 4 callgsubr
          hintmask 100111011111010010000000
          -91 callgsubr
          hintmask 010110111111010001000000
          -99 callsubr
          hintmask 001011011111010100000000
          -96 callsubr
          hintmask 010111011111011000000000
          -52 callsubr
          hintmask 010111011111100100000000
          144 817 -43 callsubr
        </CharString>
        <CharString name="H">
          4 -49 callgsubr
        </CharString>
        <CharString name="Hbar">
          -56 callgsubr
        </CharString>
        <CharString name="Hcircumflex">
          4 86 callsubr
          45 -49 callsubr
          -130 762 -98 callsubr
        </CharString>
        <CharString name="I">
          -74 callgsubr
        </CharString>
        <CharString name="IJ">
          -79 callsubr
        </CharString>
        <CharString name="Iacute">
          -40 callgsubr
        </CharString>
        <CharString name="Icircumflex">
          -33 callgsubr
        </CharString>
        <CharString name="Idieresis">
          -46 callgsubr
        </CharString>
        <CharString name="Idotaccent">
          -74 callgsubr
        </CharString>
        <CharString name="Igrave">
          -39 callsubr
        </CharString>
        <CharString name="Imacron">
          -30 callsubr
        </CharString>
        <CharString name="Iogonek">
          -59 callsubr
        </CharString>
        <CharString name="Itilde">
          -65 callsubr
        </CharString>
        <CharString name="J">
          -37 callsubr
        </CharString>
        <CharString name="Jcircumflex">
          -48 callsubr
        </CharString>
        <CharString name="K">
          -53 -32 21 685 -20 hstemhm
          31 45 callsubr
          hintmask 11001000
          464 -20 callsubr
        </CharString>
        <CharString name="Kcommaaccent">
          -53 58 callgsubr
          31 45 callsubr
          hintmask 0010100100000000
          464 -24 callsubr
          -150 -212 -57 callgsubr
        </CharString>
        <CharString name="L">
          -371 -2 21 671 76 callgsubr
          hintmask 11001000
          168 1 callsubr
        </CharString>
        <CharString name="Lacute">
          -44 callsubr
        </CharString>
        <CharString name="Lcaron">
          -338 -2 21 439 49 callgsubr
          40 76 callgsubr
          hintmask 11010010
          168 2 callgsubr
          99 -21 -31 callsubr
        </CharString>
        <CharString name="Lcommaaccent">
          -371 54 callsubr
          19 97 -86 95 -83 74 hintmask 0001100100000000
          168 -7 callgsubr
          -49 -723 -57 callgsubr
        </CharString>
        <CharString name="Ldot">
          -353 -2 21 278 -44 callgsubr
          279 76 callgsubr
          26 14 callsubr
          hintmask 1111110010010000
          43 callsubr
          hintmask 1111101100010000
          -45 callsubr
          hintmask 1111101001010000
          -78 callgsubr
          hintmask 1111110010010000
          hintmask 1111101010100000
          100 -152 -43 callsubr
        </CharString>
        <CharString name="Lslash">
          -318 27 callsubr
          hstemhm
          12 73 callsubr
          12 6 callsubr
        </CharString>
        <CharString name="M">
          385 -74 callsubr
        </CharString>
        <CharString name="N">
          73 -3 callsubr
          hstemhm
          483 107 -102 104 hintmask 11010100
          -42 callsubr
          hintmask 10101000
          -78 callsubr
          hintmask 11010100
          -60 callsubr
          hintmask 10101000
          1 callgsubr
          endchar
        </CharString>
        <CharString name="Nacute">
          73 -3 callsubr
          63 -69 callsubr
          483 107 -102 104 hintmask 1101101101000000
          -42 callsubr
          hintmask 1010101110000000
          -78 callsubr
          hintmask 1101101101000000
          -60 callsubr
          hintmask 1010101110000000
          1 callgsubr
          hintmask 1010101101000000
          hintmask 1010011110000000
          -200 547 -90 callgsubr
        </CharString>
        <CharString name="Ncaron">
          73 -3 callsubr
          82 21 128 69 callsubr
          hintmask 11010001
          -42 callsubr
          hintmask 10100010
          -78 callsubr
          hintmask 11010001
          -60 callsubr
          hintmask 10100010
          1 callgsubr
          hintmask 10100001
          hintmask 00001100
          -313 633 -80 callsubr
        </CharString>
        <CharString name="Ncommaaccent">
          73 47 callgsubr
          483 107 -102 104 hintmask 0001101010000000
          -42 callsubr
          hintmask 0001010100000000
          -78 callsubr
          hintmask 0001101010000000
          -60 callsubr
          hintmask 0001010100000000
          1 callgsubr
          hintmask 0001010010000000
          hintmask 1010000000000000
          -178 -254 -57 callgsubr
        </CharString>
        <CharString name="Ntilde">
          73 -3 callsubr
          113 -29 callsubr
          483 107 -102 104 hintmask 1101000000100000
          -42 callsubr
          hintmask 1010000001000000
          -78 callsubr
          hintmask 1101000000100000
          -60 callsubr
          hintmask 1010000001000000
          1 callgsubr
          hintmask 1010000000100000
          hintmask 0000010010000000
          -77 -39 callgsubr
        </CharString>
        <CharString name="O">
          0 callsubr
          -25 callgsubr
          hintmask 11011000
          -67 callsubr
          hintmask 11101000
          -104 callgsubr
          endchar
        </CharString>
        <CharString name="OE">
          -77 callgsubr
        </CharString>
        <CharString name="Oacute">
          45 callgsubr
          56 21 11 -21 139 -20 47 -2 callgsubr
          hintmask 1011011011000000
          -67 callsubr
          hintmask 1011011101000000
          -104 callgsubr
          hintmask 0110111011000000
          -300 328 -90 callgsubr
        </CharString>
        <CharString name="Obreve">
          0 callsubr
          75 76 67 -20 23 -2 callgsubr
          hintmask 11000011
          -67 callsubr
          hintmask 11000101
          -104 callgsubr
          hintmask 00101000
          -385 424 -36 callsubr
        </CharString>
        <CharString name="Ocircumflex">
          0 callsubr
          76 21 128 -2 callgsubr
          hintmask 11000110
          -67 callsubr
          hintmask 11001010
          -104 callgsubr
          hintmask 00110000
          -103 408 -98 callsubr
        </CharString>
        <CharString name="Odieresis">
          -56 callsubr
        </CharString>
        <CharString name="Ograve">
          -54 callsubr
        </CharString>
        <CharString name="Ohungarumlaut">
          -63 callgsubr
        </CharString>
        <CharString name="Omacron">
          -43 callgsubr
        </CharString>
        <CharString name="Omega">
          42 -17 callsubr
        </CharString>
        <CharString name="Oslash">
          -11 -117 21 97 73 -72 72 334 81 129 -20 hstemhm
          32 84 callsubr
          511 229 rmoveto
          75 -79 76 -55 43 vhcurveto
          68 171 -98 24 -52 -138 rlineto
          7 -12 -14 2 -13 74 callgsubr
          -91 45 -74 80 -42 hvcurveto
          -33 -131 96 -18 28 120 rlineto
          -1 10 10 -1 10 hhcurveto
          122 111 104 124 hvcurveto
          -161 126 rmoveto
          29 -36 32 -65 -47 vvcurveto
          6 callgsubr
          -13 -12 2 2 -12 vhcurveto
          24 102 7 31 10 30 11 31 rlinecurve
          -49 135 rmoveto
          -33 -89 -11 -31 -12 -30 -6 -32 rlinecurve
          -25 -98 rlineto
          -34 35 -15 43 49 vvcurveto
          71 42 83 81 vhcurveto
          4 5 -1 4 hhcurveto
          endchar
        </CharString>
        <CharString name="Otilde">
          -70 callsubr
        </CharString>
        <CharString name="P">
          -28 69 callgsubr
          36 50 callgsubr
          282 -42 callgsubr
        </CharString>
        <CharString name="Q">
          -9 68 callgsubr
          22 67 callgsubr
          376 -28 callsubr
        </CharString>
        <CharString name="R">
          48 callgsubr
          hstem
          -97 callsubr
          endchar
        </CharString>
        <CharString name="Racute">
          -35 callsubr
        </CharString>
        <CharString name="Rcaron">
          -34 callgsubr
        </CharString>
        <CharString name="Rcommaaccent">
          -36 callgsubr
        </CharString>
        <CharString name="S">
          32 callsubr
          hstem
          17 callsubr
          vstem
          -105 callsubr
          endchar
        </CharString>
        <CharString name="Sacute">
          -62 callgsubr
        </CharString>
        <CharString name="Scaron">
          -58 callgsubr
        </CharString>
        <CharString name="Scedilla">
          -70 callgsubr
        </CharString>
        <CharString name="Scircumflex">
          -61 callsubr
        </CharString>
        <CharString name="Scommaaccent">
          -63 callsubr
        </CharString>
        <CharString name="T">
          -268 -41 callsubr
        </CharString>
        <CharString name="Tbar">
          -53 callgsubr
        </CharString>
        <CharString name="Tcaron">
          -55 callsubr
        </CharString>
        <CharString name="Tcommaaccent">
          -98 callgsubr
          -37 -224 -57 callgsubr
        </CharString>
        <CharString name="Thorn">
          57 callgsubr
          45 51 callsubr
          hintmask 11111010
          10 callsubr
          hintmask 11111100
          54 callgsubr
          56 callgsubr
          hintmask 11111010
          83 callgsubr
        </CharString>
        <CharString name="U">
          -51 callsubr
          hstemhm
          26 97 hintmask 10110000
          -107 callsubr
          hintmask 01110000
          -82 callsubr
          endchar
        </CharString>
        <CharString name="Uacute">
          -50 callgsubr
        </CharString>
        <CharString name="Ubreve">
          -66 callsubr
        </CharString>
        <CharString name="Ucircumflex">
          -50 callsubr
        </CharString>
        <CharString name="Udieresis">
          -64 callgsubr
        </CharString>
        <CharString name="Ugrave">
          -54 callgsubr
        </CharString>
        <CharString name="Uhungarumlaut">
          -66 callgsubr
        </CharString>
        <CharString name="Umacron">
          -45 callgsubr
        </CharString>
        <CharString name="Uogonek">
          -58 callsubr
        </CharString>
        <CharString name="Uring">
          -75 callgsubr
        </CharString>
        <CharString name="Utilde">
          -75 callsubr
        </CharString>
        <CharString name="V">
          -66 -21 21 484 -20 hstem
          378 18 callgsubr
        </CharString>
        <CharString name="W">
          171 73 callgsubr
          hstem
          723 -64 callsubr
          endchar
        </CharString>
        <CharString name="Wcircumflex">
          171 73 callgsubr
          23 26 callsubr
          723 -64 callsubr
          hintmask 00110000
          -37 624 -98 callsubr
        </CharString>
        <CharString name="X">
          -58 -10 21 508 -20 hstem
          473 48 rmoveto
          -183 222 48 72 48 72 48 72 rlinecurve
          -70 33 -87 -131 -7 -11 -18 -31 -10 -10 rlinecurve
          -2 -2 -131 182 -57 -53 134 -196 -172 -216 65 -56 158 205 164 -210 rlineto
          endchar
        </CharString>
        <CharString name="Y">
          -38 21 callgsubr
          hstem
          -53 callsubr
          endchar
        </CharString>
        <CharString name="Yacute">
          -38 21 callgsubr
          102 -69 callsubr
          hintmask 11101100
          -53 callsubr
          hintmask 11011100
          -251 122 -90 callgsubr
        </CharString>
        <CharString name="Ycircumflex">
          -38 21 callgsubr
          122 26 callsubr
          -53 callsubr
          hintmask 00110000
          -85 202 -98 callsubr
        </CharString>
        <CharString name="Ydieresis">
          -38 21 callgsubr
          114 -51 callgsubr
          136 -4 callgsubr
          hintmask 1100000000000000
          -53 callsubr
          hintmask 0011111001000000
          -262 42 callsubr
        </CharString>
        <CharString name="Z">
          -75 -13 callgsubr
        </CharString>
        <CharString name="Zacute">
          -75 -22 callsubr
          -197 9 callsubr
        </CharString>
        <CharString name="Zcaron">
          -75 -3 callgsubr
          111 21 128 -20 -72 callsubr
          hintmask 00001100
          -340 3 callgsubr
        </CharString>
        <CharString name="Zdotaccent">
          -75 -3 callgsubr
          104 -51 callgsubr
          190 -12 callgsubr
          -155 42 callgsubr
        </CharString>
        <CharString name="a">
          -17 callgsubr
          83 callsubr
          hintmask 01111000
          -103 callsubr
          hintmask 10111000
          -5 callsubr
          endchar
        </CharString>
        <CharString name="aacute">
          -17 callgsubr
          25 -69 callsubr
          31 85 hintmask 0111101110000000
          -103 callsubr
          hintmask 1011101110000000
          -5 callsubr
          hintmask 1011011110000000
          -236 547 -90 callgsubr
        </CharString>
        <CharString name="abreve">
          -17 callgsubr
          44 13 callsubr
          31 85 hintmask 01110001
          -103 callsubr
          hintmask 10110001
          -5 callsubr
          hintmask 00001010
          -342 643 -86 callsubr
          hintmask 00001100
          -10 callgsubr
        </CharString>
        <CharString name="acircumflex">
          -17 callgsubr
          45 -25 callsubr
          31 85 hintmask 01110010
          -103 callsubr
          hintmask 10110010
          -5 callsubr
          hintmask 00001100
          -50 627 -98 callsubr
        </CharString>
        <CharString name="acute">
          546 -59 callgsubr
          hstem
          93 9 callsubr
        </CharString>
        <CharString name="acute.cap">
          578 -21 166 -20 hstem
          93 9 callsubr
        </CharString>
        <CharString name="adieresis">
          -17 callgsubr
          37 -51 callgsubr
          31 85 21 -4 callgsubr
          -41 callgsubr
          hintmask 0000111101001000
          -227 578 -55 callgsubr
          hintmask 0000111100110000
          -40 callsubr
        </CharString>
        <CharString name="ae">
          -81 callgsubr
        </CharString>
        <CharString name="afii61289">
          -22 0 83 -41 41 541 -20 hstemhm
          137 83 -42 83 -41 83 -83 125 -42 83 hintmask 10100100
          220 624 rmoveto
          hintmask 10101001
          -41 -42 vlineto
          hintmask 10110001
          -83 -41 vlineto
          hintmask 10101001
          -292 -42 -41 42 vlineto
          hintmask 10100100
          -42 vlineto
          hintmask 10101001
          41 -83 hlineto
          hintmask 10110001
          42 hlineto
          hintmask 01101001
          -42 125 vlineto
          hintmask 01110001
          42 41 41 -125 84 -41 vlineto
          hintmask 10100010
          41 41 vlineto
          hintmask 01100010
          42 42 41 vlineto
          hintmask 01101001
          42 42 hlineto
          hintmask 10110001
          41 208 hlineto
          hintmask 10101001
          -41 42 hlineto
          hintmask 10100100
          -42 41 hlineto
          -83 vmoveto
          -208 vlineto
          hintmask 10100010
          -42 -42 hlineto
          hintmask 10110001
          -41 209 hlineto
          hintmask 10100010
          41 41 hlineto
          endchar
        </CharString>
        <CharString name="agrave">
          -17 callgsubr
          27 5 callsubr
          31 85 -41 callgsubr
          hintmask 0000101000000000
          -122 590 rmoveto
          hintmask 0000100100000000
          -5 callgsubr
          hintmask 0000011000000000
          15 callsubr
        </CharString>
        <CharString name="amacron">
          -17 callgsubr
          -13 68 3 88 callsubr
          83 callsubr
          hintmask 0110100110000000
          356 22 callgsubr
          hintmask 0111010110000000
          -100 callgsubr
          hintmask 1010100110000000
          -5 callsubr
          hintmask 1010101010000000
          -63 685 -27 callsubr
        </CharString>
        <CharString name="ampersand">
          66 -21 99 -90 21 -5 -21 506 77 hstemhm
          51 105 -30 96 129 89 hintmask 01010110
          579 64 rmoveto
          -7 5 -15 12 -8 4 rrcurveto
          1 hlineto
          -11 8 rlineto
          0 -11 7 -4 3 vhcurveto
          -13 6 -11 8 -8 8 46 124 rcurveline
          -85 19 -18 -43 -5 -11 -3 -6 -6 -14 rlinecurve
          -11 22 -6 4 -8 10 -9 13 rcurveline
          -17 19 -18 23 -15 19 rrcurveto
          55 31 48 50 53 vvcurveto
          29 -24 36 -19 23 vhcurveto
          4 vlineto
          26 -30 -51 10 -38 hhcurveto
          -37 -45 -9 -25 -29 hvcurveto
          -35 -25 -6 -38 -37 vvcurveto
          -33 26 -44 20 -30 vhcurveto
          hintmask 01011010
          -61 -32 -60 -49 -73 vvcurveto
          hintmask 10011010
          -113 79 -79 124 vhcurveto
          hintmask 00111010
          9 7 2 2 6 hvcurveto
          -3 hlineto
          9 2 52 13 47 20 46 23 rlinecurve
          22 -20 37 -27 32 -8 rrcurveto
          hintmask 10011010
          -265 92 rmoveto
          -43 -54 21 48 45 29 36 45 22 hvcurveto
          120 -126 rlineto
          -33 -22 -39 -13 -36 hhcurveto
          hintmask 01010110
          -31 372 rmoveto
          25 39 14 21 vhcurveto
          6 hlineto
          29 34 -17 -31 -31 -41 -19 -27 -13 hvcurveto
          -10 -6 -6 7 rlineto
          -20 20 -25 25 26 vvcurveto
          endchar
        </CharString>
        <CharString name="aogonek">
          9 -206 88 131 72 192 69 85 90 hstem
          24 85 226 85 vstem
          349 22 callgsubr
          181 -23 -87 328 66 callsubr
          -35 callgsubr
          35 55 -72 callgsubr
          -92 -123 -61 callgsubr
          24 -40 12 -62 10 -46 rrcurveto
          -53 -24 -54 -34 -66 vvcurveto
          -66 67 -51 68 callsubr
          -30 -42 26 33 71 140 0 -1 hvcurveto
          endchar
        </CharString>
        <CharString name="approxequal">
          23 91 95 -88 -21 72 37 -37 78 -4 27 14 95 -37 37 -37 79 -28 27 17 -20 87 -20 170 -20 hstemhm
          hintmask 0110110010110000
          475 244 rmoveto
          -39 -12 -39 -19 -39 hhcurveto
          hintmask 0101010010110000
          -50 -42 41 -67 hhcurveto
          -69 -58 -36 -62 -30 35 callsubr
          hintmask 1000101001110000
          -69 229 rmoveto
          -39 -12 -39 -19 -39 hhcurveto
          hintmask 1000100100110000
          -50 -42 42 -68 hhcurveto
          -69 -58 -37 -62 -29 35 callsubr
          endchar
        </CharString>
        <CharString name="aring">
          -17 callgsubr
          39 19 callsubr
          31 85 43 52 88 52 hintmask 0111000100000000
          -103 callsubr
          hintmask 1011000100000000
          -5 callsubr
          hintmask 0000011011000000
          -204 740 7 callgsubr
          hintmask 0000100011000000
          52 callsubr
          hintmask 0000011011000000
          -62 callsubr
        </CharString>
        <CharString name="asciicircum">
          -236 493 21 168 -20 hstem
          285 554 rmoveto
          -136 128 -126 -133 45 -48 79 80 95 -88 rlineto
          endchar
        </CharString>
        <CharString name="asciitilde">
          -104 208 82 -73 -21 62 32 -32 68 -33 27 20 -20 234 -20 hstemhm
          hintmask 01100110
          359 340 rmoveto
          -33 -9 -33 -17 -33 hhcurveto
          hintmask 01010010
          -41 -35 36 -58 hhcurveto
          -58 -48 -33 -52 -25 hvcurveto
          55 -45 rlineto
          24 17 36 38 31 hhcurveto
          hintmask 10001010
          48 41 -50 52 hhcurveto
          49 38 47 37 25 hvcurveto
          endchar
        </CharString>
        <CharString name="asterisk">
          23 93 -21 43 23 99 70 -70 87 -76 96 -86 88 125 40 callsubr
          hintmask 11001010
          199 471 rmoveto
          -69 -44 rlineto
          hintmask 11100001
          26 -36 37 -52 22 -32 rrcurveto
          -132 -70 137 hlineto
          -82 -126 27 -11 18 -11 28 -13 rlinecurve
          76 116 79 -120 71 41 -22 37 -28 54 -20 33 rlinecurve
          128 hlineto
          hintmask 11010001
          87 -147 vlineto
          81 112 -24 12 -17 9 -28 13 rlinecurve
          hintmask 11000101
          -23 -38 -31 -51 -20 -35 rrcurveto
          endchar
        </CharString>
        <CharString name="at">
          174 -106 66 121 67 188 78 100 74 hstemhm
          21 68 91 90 -89 90 156 86 101 78 hintmask 1111101110000000
          427 224 rmoveto
          -34 -23 -42 -39 vhcurveto
          hintmask 1111110110000000
          -56 -39 48 54 38 24 48 44 48 41 -69 -43 hvcurveto
          -81 -151 rmoveto
          40 49 25 35 19 hvcurveto
          -34 15 53 -18 34 hhcurveto
          79 57 82 77 187 -145 161 -191 -190 -145 -162 -186 -187 146 -159 190 58 56 15 30 50 hvcurveto
          -33 61 rlineto
          -26 -40 -46 -14 -48 hhcurveto
          -151 -114 128 148 160 106 118 163 70 70 -15 -51 51 hvcurveto
          44 -44 21 -40 -68 vvcurveto
          3 1 -147 -64 -27 -9 19 23 -4 vhcurveto
          1 4 1 5 4 vvcurveto
          42 -4 43 -1 42 vhcurveto
          9 1 10 9 vvcurveto
          44 -32 1 -30 vhcurveto
          1 -13 1 -13 -13 vvcurveto
          -6 0 -5 -3 vhcurveto
          39 -14 -60 18 -25 hhcurveto
          -99 -68 -78 -96 -91 73 -76 93 hvcurveto
          endchar
        </CharString>
        <CharString name="atilde">
          -17 callgsubr
          75 -29 callsubr
          31 85 hintmask 0111000001000000
          -103 callsubr
          hintmask 1011000001000000
          -5 callsubr
          hintmask 0000010010000000
          -103 -39 callgsubr
        </CharString>
        <CharString name="b">
          -70 71 callsubr
          22 63 callsubr
          238 -28 callgsubr
        </CharString>
        <CharString name="backslash">
          -211 -17 21 675 -20 hstem
          245 -17 rmoveto
          91 43 -91 235 -18 46 -11 26 -16 46 rlinecurve
          -93 300 -85 -21 72 -249 18 -56 12 -31 20 -55 rlinecurve
          endchar
        </CharString>
        <CharString name="bar">
          -73 callsubr
        </CharString>
        <CharString name="braceleft">
          -325 28 callsubr
          31 88 vstem
          125 -32 callgsubr
        </CharString>
        <CharString name="braceright">
          -315 -8 callgsubr
        </CharString>
        <CharString name="bracketleft">
          -335 28 callsubr
          21 88 vstem
          115 -32 callgsubr
        </CharString>
        <CharString name="bracketright">
          -312 28 callsubr
          123 89 vstem
          20 -32 callsubr
        </CharString>
        <CharString name="breve">
          4 callsubr
        </CharString>
        <CharString name="breve.cap">
          4 callsubr
        </CharString>
        <CharString name="brokenbar">
          -73 callsubr
        </CharString>
        <CharString name="bullet">
          -147 138 -21 192 21 98 -20 21 -20 hstemhm
          45 78 0 151 hintmask 11100100
          204 117 rmoveto
          74 75 76 73 hvcurveto
          hintmask 11010100
          104 -89 59 -89 vhcurveto
          hintmask 11101000
          55 callgsubr
          endchar
        </CharString>
        <CharString name="c">
          -85 25 callsubr
          hstem
          16 107 vstem
          -92 callgsubr
          endchar
        </CharString>
        <CharString name="cacute">
          -85 25 callsubr
          77 callgsubr
          16 107 hintmask 11101110
          -92 callgsubr
          hintmask 11011110
          -231 510 -90 callgsubr
        </CharString>
        <CharString name="caron">
          565 -8 callsubr
          hstem
          10 3 callgsubr
        </CharString>
        <CharString name="caron.alt">
          479 -21 212 -20 hstem
          145 65 callgsubr
          endchar
        </CharString>
        <CharString name="caron.cap">
          586 -21 149 -20 hstem
          10 3 callgsubr
        </CharString>
        <CharString name="ccaron">
          -85 25 callsubr
          62 -18 callsubr
          -334 596 -80 callsubr
        </CharString>
        <CharString name="ccedilla">
          -85 67 callsubr
          16 107 122 98 hintmask 00111000
          -92 callgsubr
          hintmask 11000100
          -266 -128 -65 callgsubr
        </CharString>
        <CharString name="ccircumflex">
          -85 25 callsubr
          63 -18 callsubr
          -54 590 -98 callsubr
        </CharString>
        <CharString name="cdotaccent">
          -85 25 callsubr
          55 -51 callgsubr
          16 107 92 60 callsubr
          -92 callgsubr
          hintmask 1111111100000000
          -149 541 -43 callsubr
        </CharString>
        <CharString name="cedilla">
          48 callsubr
          hstem
          129 98 vstem
          73 -81 -65 callgsubr
        </CharString>
        <CharString name="cent">
          -107 -85 21 34 -21 591 -20 92 -20 hstemhm
          34 110 96 93 -90 105 -85 84 hintmask 11111001
          323 -50 rmoveto
          4 52 22 3 47 10 21 6 rlinecurve
          -26 96 -17 -5 -34 -14 -17 -2 rlinecurve
          hintmask 11111100
          3 67 7 67 67 37 -1 37 37 vvcurveto
          19 -7 28 -9 17 -11 23 97 rcurveline
          -40 18 -31 -8 -23 5 3 47 rcurveline
          -98 -4 -2 -40 rlineto
          -106 -18 -88 -113 -106 vvcurveto
          -115 85 -109 112 -27 vhcurveto
          -6 -59 rlineto
          12 466 rmoveto
          7 -95 rlineto
          1 -19 3 -10 -19 vvcurveto
          hintmask 11111010
          -22 -3 -12 -2 -22 vhcurveto
          -9 -112 rlineto
          -61 28 -29 67 64 vvcurveto
          62 28 71 65 19 vhcurveto
          endchar
        </CharString>
        <CharString name="circumflex">
          566 21 128 39 callsubr
        </CharString>
        <CharString name="circumflex.cap">
          587 -21 149 39 callsubr
        </CharString>
        <CharString name="colon">
          -351 85 21 321 59 callgsubr
          85 rmoveto
          0 callgsubr
          108 207 rmoveto
          hintmask 11000000
          0 callgsubr
          endchar
        </CharString>
        <CharString name="comma">
          -351 -120 21 189 -20 hstem
          98 -120 23 callsubr
          endchar
        </CharString>
        <CharString name="commaaccent">
          -26 callsubr
          hstemhm
          hintmask 10100000
          145 -244 -4 callsubr
        </CharString>
        <CharString name="commaaccent.alt">
          -24 -20 600 -21 171 -20 hstem
          140 706 38 callgsubr
        </CharString>
        <CharString name="copyright">
          241 -85 62 95 76 188 78 81 70 hstemhm
          88 68 91 90 -89 90 288 72 hintmask 11111011
          -21 callsubr
          -22 -423 rmoveto
          28 33 16 17 22 hvcurveto
          -26 61 rlineto
          -11 -10 -14 -7 -15 hhcurveto
          hintmask 11111101
          -57 -39 47 55 38 24 48 44 20 17 -11 -13 13 hvcurveto
          34 75 rlineto
          17 -20 -29 10 -26 hhcurveto
          -99 -68 -78 -96 -91 74 -77 94 hvcurveto
          endchar
        </CharString>
        <CharString name="currency">
          -107 66 -21 24 88 -56 22 212 94 35 -20 190 -20 hstemhm
          35 98 183 98 hintmask 10111111
          66 340 rmoveto
          -25 -26 -6 -37 -29 vvcurveto
          -25 15 -42 11 -25 vhcurveto
          -58 -52 65 -59 57 49 rlineto
          hintmask 11011111
          -7 26 44 -18 30 hhcurveto
          37 38 10 12 36 hvcurveto
          52 -45 45 59 -14 17 -17 20 -13 14 rlinecurve
          14 27 11 37 27 vvcurveto
          25 -13 43 -10 31 vhcurveto
          56 58 -62 60 -61 -66 rlineto
          20 -26 -30 11 -27 hhcurveto
          -37 -36 -2 -32 -39 hvcurveto
          -64 65 -20 -23 -22 -21 -21 -24 rlinecurve
          133 -148 rmoveto
          7 -2 4 6 vvcurveto
          52 57 22 44 47 35 -55 -41 -56 -56 -26 -49 -44 -33 38 39 vhcurveto
          2 1 2 2 vvcurveto
          endchar
        </CharString>
        <CharString name="d">
          -53 74 callsubr
          238 57 callsubr
          hintmask 10111010
          216 134 30 callsubr
          hintmask 01111001
          -2 callsubr
          hintmask 10111010
          10 -81 rlineto
          hintmask 10110101
          79 283 hlineto
          endchar
        </CharString>
        <CharString name="dagger">
          9 -190 21 572 88 -87 84 224 -20 hstemhm
          211 114 -94 104 -104 121 hintmask 11010010
          352 -190 rmoveto
          591 170 125 vlineto
          hintmask 11011000
          -197 -25 rlineto
          211 -114 vlineto
          hintmask 10111000
          -224 -186 -84 vlineto
          hintmask 10110100
          206 -568 hlineto
          endchar
        </CharString>
        <CharString name="daggerdbl">
          9 -175 21 594 85 -73 87 164 -20 hstemhm
          217 119 -111 102 -102 121 hintmask 10110010
          346 -175 rmoveto
          200 vlineto
          172 -37 rlineto
          118 vlineto
          hintmask 10110100
          -191 344 hlineto
          195 -23 rlineto
          121 -197 vlineto
          hintmask 10110010
          21 155 rlineto
          -126 hlineto
          hintmask 11011000
          -178 -192 -85 vlineto
          hintmask 11010100
          197 -347 -191 -99 hlineto
          193 29 rlineto
          -198 vlineto
          endchar
        </CharString>
        <CharString name="dcaron">
          -41 74 callsubr
          22 49 callgsubr
          24 57 callsubr
          hintmask 1011011010000000
          216 134 30 callsubr
          hintmask 0111011001000000
          -2 callsubr
          hintmask 1011011010000000
          10 -81 rlineto
          hintmask 1011100101000000
          79 283 hlineto
          178 165 -31 callsubr
        </CharString>
        <CharString name="dcroat">
          -53 25 109 -103 -21 193 94 -91 88 -87 85 67 77 238 63 callgsubr
          98 0 80 -74 83 hintmask 1001011101000000
          473 208 rmoveto
          86 -72 vlineto
          131 345 -23 callsubr
          hintmask 0101011101000000
          10 -81 rlineto
          79 196 hlineto
          hintmask 1000111101000000
          -127 86 rmoveto
          -90 hlineto
          5 -82 rlineto
          hintmask 1010011101000000
          -2 17 34 -5 20 2 3 0 2 hhcurveto
          -29 -9 -25 -40 -35 hhcurveto
          hintmask 1000111010000000
          -63 -29 79 42 52 59 52 49 33 23 -39 -28 4 hvcurveto
          endchar
        </CharString>
        <CharString name="degree">
          -15 callsubr
        </CharString>
        <CharString name="dieresis">
          558 -51 callgsubr
          32 -4 callgsubr
          hintmask 11111001
          80 callgsubr
          hintmask 11110110
          -40 callsubr
        </CharString>
        <CharString name="dieresis.cap">
          609 -21 104 -20 hstem
          32 91 54 91 vstem
          80 callgsubr
          -40 callsubr
        </CharString>
        <CharString name="divide">
          23 47 -21 41 23 66 72 0 78 187 -20 21 -20 176 -20 hstemhm
          217 149 -148 121 hintmask 1110011010000000
          339 374 rmoveto
          40 1 40 40 vvcurveto
          hintmask 1101101010000000
          -41 -40 -1 -41 hhcurveto
          1 -45 1 -44 2 -45 rrcurveto
          259 -131 rmoveto
          22 78 rlineto
          -152 -152 -3 -152 hhcurveto
          11 -75 rlineto
          293 -202 rmoveto
          hintmask 1110011100000000
          -7 43 -8 44 -7 43 -38 -2 -37 -2 -38 -1 2 -37 0 -37 2 -37 rrcurveto
          endchar
        </CharString>
        <CharString name="dollar">
          -107 -92 21 2 -21 90 21 -1 -21 548 -20 103 -20 hstemhm
          59 92 26 71 59 93 hintmask 1010111110000000
          80 135 rmoveto
          -41 -76 38 -32 47 -18 49 -8 rlinecurve
          -4 -79 rlineto
          hintmask 0110111110000000
          77 -12 rlineto
          hintmask 1001111110000000
          5 89 rlineto
          112 37 71 87 61 -72 55 -60 8 hvcurveto
          4 38 1 38 2 38 23 -7 21 -11 22 -12 48 67 rcurveline
          -32 28 -38 15 -40 7 8 65 rcurveline
          -91 hlineto
          -6 -73 rlineto
          -54 -15 -77 -57 -66 vvcurveto
          -66 51 -69 69 vhcurveto
          -4 -117 -35 10 -31 18 -29 23 rlinecurve
          190 68 rmoveto
          27 -9 10 -20 -30 vvcurveto
          -30 -13 -21 -31 -9 vhcurveto
          -75 325 rmoveto
          -5 -107 rlineto
          -21 7 -11 18 23 vvcurveto
          26 13 19 24 14 vhcurveto
          endchar
        </CharString>
        <CharString name="dotaccent">
          558 -44 callgsubr
          hstem
          104 90 -90 14 callsubr
          vstem
          195 42 callgsubr
        </CharString>
        <CharString name="dotaccent.cap">
          609 -21 104 -20 hstem
          104 91 vstem
          195 42 callgsubr
        </CharString>
        <CharString name="dotlessi">
          -14 callsubr
          hstemhm
          42 41 callgsubr
          hintmask 11010000
          -13 callsubr
          hintmask 11100000
          -100 callsubr
          hintmask 11010000
          -79 callgsubr
          endchar
        </CharString>
        <CharString name="dotlessj">
          62 callgsubr
          641 -20 212 86 callgsubr
          hintmask 11101000
          13 callgsubr
          hintmask 11110000
          -1 callsubr
          hintmask 11100100
          33 callgsubr
          hintmask 11101000
          -73 callgsubr
          endchar
        </CharString>
        <CharString name="e">
          31 callsubr
          hstem
          22 104 vstem
          395 -107 callgsubr
          endchar
        </CharString>
        <CharString name="eacute">
          31 callsubr
          45 -69 callsubr
          22 104 hintmask 11101110
          395 -107 callgsubr
          hintmask 11011110
          91 374 -90 callgsubr
        </CharString>
        <CharString name="ebreve">
          31 callsubr
          64 13 callsubr
          22 104 hintmask 11000100
          395 -107 callgsubr
          hintmask 00101000
          -24 470 -36 callsubr
        </CharString>
        <CharString name="ecaron">
          31 callsubr
          64 -25 callsubr
          22 104 hintmask 11001000
          395 -107 callgsubr
          hintmask 00110000
          -22 460 -80 callsubr
        </CharString>
        <CharString name="ecircumflex">
          31 callsubr
          65 -25 callsubr
          22 104 hintmask 11001000
          395 -107 callgsubr
          hintmask 00110000
          258 454 -98 callsubr
        </CharString>
        <CharString name="edieresis">
          -15 12 callgsubr
          22 104 22 -4 callgsubr
          hintmask 1100001000000000
          395 -107 callgsubr
          hintmask 0011110100100000
          91 43 callgsubr
        </CharString>
        <CharString name="edotaccent">
          -15 12 callgsubr
          22 104 94 60 callsubr
          395 -107 callgsubr
          hintmask 1111111100000000
          163 405 -43 callsubr
        </CharString>
        <CharString name="egrave">
          31 callsubr
          47 5 callsubr
          22 104 hintmask 11000010
          395 -107 callgsubr
          hintmask 00101000
          185 417 2 callsubr
        </CharString>
        <CharString name="eight">
          -107 -2 80 402 77 hstem
          66 89 160 90 vstem
          231 78 rmoveto
          -40 -36 25 43 44 42 30 35 17 hvcurveto
          28 -18 55 -33 -38 vvcurveto
          -42 -44 -28 -40 vhcurveto
          -5 -80 rmoveto
          86 93 72 84 53 -44 41 -40 28 hvcurveto
          45 31 38 47 57 vvcurveto
          86 -81 60 -81 -84 -92 -61 -91 -57 40 -44 45 -30 vhcurveto
          -36 -38 -42 -54 -55 vvcurveto
          -76 82 -53 71 vhcurveto
          10 482 rmoveto
          31 52 -42 -31 -33 -61 -27 -25 -11 hvcurveto
          -27 12 -48 26 35 vvcurveto
          32 47 39 31 vhcurveto
          endchar
        </CharString>
        <CharString name="ellipsis">
          60 0 21 101 -20 hstem
          351 3 rmoveto
          18 107 -115 12 rlineto
          -102 vlineto
          293 -20 rmoveto
          19 114 rlineto
          -116 hlineto
          -12 -98 rlineto
          -294 -14 rmoveto
          17 107 rlineto
          -116 hlineto
          -9 -88 rlineto
          endchar
        </CharString>
        <CharString name="emacron">
          31 callsubr
          7 40 callgsubr
          22 104 hintmask 11101100
          395 -107 callgsubr
          hintmask 11110100
          255 512 -27 callsubr
        </CharString>
        <CharString name="emdash">
          373 244 104 -89 89 7 -20 90 -20 hstemhm
          hintmask 00110000
          865 355 rmoveto
          -228 -13 -43 -2 -24 -6 -43 1 rlinecurve
          -195 5 -97 2 -97 1 -97 3 rlinecurve
          hintmask 01010000
          5 -87 rlineto
          hintmask 10010000
          175 184 -15 170 hhcurveto
          38 21 5 3 38 hvcurveto
          193 17 rlineto
          endchar
        </CharString>
        <CharString name="endash">
          23 261 -21 73 87 -59 -20 hstemhm
          hintmask 11000000
          538 338 rmoveto
          -230 -7 rlineto
          -1 -43 -25 -3 -43 hhcurveto
          -22 -12 3 2 -22 hvcurveto
          hintmask 10100000
          -113 9 rlineto
          -87 vlineto
          206 -9 rlineto
          -2 40 22 -3 39 hhcurveto
          26 15 2 2 27 hvcurveto
          135 8 rlineto
          endchar
        </CharString>
        <CharString name="eogonek">
          -50 -185 -21 208 88 341 70 hstem
          17 104 146 85 vstem
          390 329 -95 callsubr
          87 76 29 callgsubr
          -47 29 vhcurveto
          20 -202 rmoveto
          20 callsubr
          -170 134 -98 142 10 10 0 1 10 hvcurveto
          -32 -21 -24 -32 -40 vvcurveto
          -67 67 -49 63 vhcurveto
          3 7 callsubr
          -30 -40 24 34 47 70 41 35 19 hvcurveto
          endchar
        </CharString>
        <CharString name="equal">
          23 142 86 -83 88 -86 81 85 87 -87 101 -94 85 -83 85 -82 75 hstemhm
          hintmask 00100010
          499 228 rmoveto
          -137 7 rlineto
          1 -26 -15 2 -27 hhcurveto
          -28 -15 -2 -1 -28 hvcurveto
          -141 -7 -11 -84 rlineto
          1 98 98 2 98 hhcurveto
          hintmask 10000010
          41 43 -3 -2 41 hvcurveto
          17 269 rmoveto
          -191 -7 rlineto
          hintmask 01010000
          -1 -35 -20 -3 -36 hhcurveto
          hintmask 01000100
          -21 -11 3 2 -21 hvcurveto
          hintmask 01001000
          -106 9 rlineto
          -87 vlineto
          200 -9 rlineto
          -2 38 21 -3 38 hhcurveto
          19 10 2 2 19 hvcurveto
          hintmask 01000001
          96 8 rlineto
          endchar
        </CharString>
        <CharString name="estimated">
          76 91 callgsubr
          41 167 41 -41 125 41 42 0 42 hstemhm
          84 83 -42 42 0 42 208 41 0 42 -42 84 hintmask 1010101001000000
          209 500 rmoveto
          -42 -42 -42 -42 -41 -41 vlineto
          hintmask 1010100011000000
          -250 41 -42 42 vlineto
          hintmask 1010010011000000
          -41 42 -42 vlineto
          hintmask 1001100101000000
          166 42 42 41 41 hlineto
          hintmask 1001101001000000
          42 42 42 -42 vlineto
          hintmask 0110100101000000
          -42 -41 vlineto
          hintmask 1010100011000000
          -42 -42 -41 vlineto
          hintmask 0110101001000000
          -166 41 -42 hlineto
          hintmask 1010101000100000
          167 375 125 vlineto
          hintmask 0110100011000000
          -42 41 -42 42 -41 42 hlineto
          hintmask 1001101000010000
          -42 vmoveto
          -208 hlineto
          hintmask 1001101000100000
          -42 -42 -125 291 vlineto
          hintmask 1010010011000000
          125 -41 42 vlineto
          endchar
        </CharString>
        <CharString name="eth">
          -76 callgsubr
        </CharString>
        <CharString name="exclam">
          -345 14 95 -71 -21 92 90 -86 88 383 -20 hstemhm
          64 87 -82 80 -78 78 hintmask 10011010
          69 113 rmoveto
          hintmask 01101010
          -96 73 vlineto
          hintmask 10011100
          9 88 rlineto
          hintmask 10011010
          16 462 rmoveto
          -106 17 rlineto
          -1 -55 -1 -54 -55 vvcurveto
          -29 2 -16 2 -29 vhcurveto
          hintmask 10011001
          8 -148 83 3 rlineto
          -2 68 -3 68 68 vvcurveto
          21 4 12 2 21 vhcurveto
          endchar
        </CharString>
        <CharString name="exclamdown">
          -345 -106 21 100 -21 283 88 4 94 98 -20 hstemhm
          75 87 -85 78 -78 80 hintmask 11111001
          157 465 rmoveto
          96 -73 vlineto
          hintmask 11111100
          -9 -88 rlineto
          hintmask 11111001
          -16 -462 rmoveto
          106 -17 rlineto
          1 55 1 54 55 vvcurveto
          29 -3 16 -1 29 vhcurveto
          hintmask 11111010
          -8 148 -83 -3 rlineto
          2 -68 3 -68 -68 vvcurveto
          -21 -4 -12 -2 -21 vhcurveto
          endchar
        </CharString>
        <CharString name="f">
          -238 -22 21 323 60 callgsubr
          hstemhm
          76 51 callgsubr
          hintmask 11001001
          349 -21 callgsubr
        </CharString>
        <CharString name="fi">
          -42 -22 21 20 21 281 90 -89 89 -85 84 162 76 14 -20 hstemhm
          76 51 callgsubr
          165 104 -101 87 -78 41 callgsubr
          hintmask 1101010001010000
          264 648 rmoveto
          -9 hlineto
          hintmask 1101001100010000
          -92 -87 -52 -100 -27 7 -26 15 -23 hvcurveto
          -76 -5 rlineto
          hintmask 1110001001010000
          -94 vlineto
          hintmask 1110001010010000
          74 -343 119 340 hlineto
          hintmask 1100101001010000
          44 callgsubr
          hintmask 1101010100010000
          61 callsubr
          53 20 33 54 vhcurveto
          2 2 0 3 hhcurveto
          hintmask 1101001001000100
          208 -293 rmoveto
          hintmask 1101001001001000
          -100 callsubr
          hintmask 1101001001000100
          -71 callgsubr
          hintmask 1101001001100000
          -99 -107 hlineto
          endchar
        </CharString>
        <CharString name="five">
          -107 -12 87 190 83 104 83 -72 75 0 90 callsubr
          77 -37 78 162 88 hintmask 11100101
          136 218 rmoveto
          28 16 23 19 33 hhcurveto
          41 53 -34 -36 -41 -26 -79 -50 -41 -58 52 14 1 1 0 0 hvcurveto
          -71 -50 rlineto
          -52 33 51 -52 66 hhcurveto
          103 80 121 95 43 -26 62 -45 14 hvcurveto
          -42 13 rlineto
          7 -22 -24 5 -23 hhcurveto
          -24 -28 -6 -22 -14 hvcurveto
          hintmask 11010101
          -3 143 rlineto
          221 75 hlineto
          hintmask 11001011
          -298 -312 hlineto
          endchar
        </CharString>
        <CharString name="fl">
          -45 -22 21 -1 21 303 60 callgsubr
          42 84 callgsubr
          hstemhm
          76 51 callgsubr
          138 20 callgsubr
          hintmask 1010010100101000
          291 646 rmoveto
          2 -12 -13 0 -12 hhcurveto
          hintmask 1010010110001000
          -92 -86 -52 -100 -27 7 -27 15 -22 hvcurveto
          -76 -5 rlineto
          hintmask 1000110100101000
          -87 vlineto
          hintmask 1000110101001000
          59 callsubr
          hintmask 1001010100101000
          44 callgsubr
          hintmask 1010010110001000
          61 callsubr
          51 20 36 55 8 7 -1 -1 8 vhcurveto
          hintmask 1010011000101000
          209 119 rmoveto
          -98 hlineto
          -34 -221 rlineto
          hintmask 0110010100110000
          -45 callsubr
          hintmask 0110010100100100
          -78 callgsubr
          endchar
        </CharString>
        <CharString name="florin">
          -107 -200 21 -4 -21 574 96 52 121 -55 74 hstemhm
          hintmask 01110000
          17 -204 rmoveto
          hintmask 10101000
          48 4 115 10 14 74 11 73 rlinecurve
          64 413 rlineto
          110 hlineto
          21 99 -111 -5 rlineto
          43 10 5 77 53 hhcurveto
          24 25 -6 -2 24 hvcurveto
          hintmask 10110000
          26 63 rlineto
          hintmask 01101000
          10 -39 -41 9 -40 hhcurveto
          -125 -11 -92 -99 -22 hvcurveto
          -90 -1 -13 -97 rlineto
          90 hlineto
          -71 -395 -9 -51 -22 -16 -32 -5 rlinecurve
          endchar
        </CharString>
        <CharString name="four">
          -107 10 21 171 80 -78 78 313 -20 hstemhm
          197 75 -37 88 hintmask 10111000
          324 205 rmoveto
          50 78 hlineto
          hintmask 11010100
          -51 306 hlineto
          -57 -8 -66 14 -147 -311 rlineto
          -82 182 -171 vlineto
          86 -21 rlineto
          -84 272 rmoveto
          -103 hlineto
          99 207 4 -182 rlineto
          -8 0 -9 -8 vvcurveto
          endchar
        </CharString>
        <CharString name="fraction">
          27 -30 21 22 -21 61 66 -60 63 234 106 -106 109 268 -20 hstem
          84 99 361 98 -95 101 vstem
          539 724 rmoveto
          -62 9 -424 -731 79 -10 rlineto
          endchar
        </CharString>
        <CharString name="g">
          -83 -48 callgsubr
          17 callgsubr
          hintmask 1001110100100000
          -82 callgsubr
          hintmask 0101101100010000
          -99 callsubr
          hintmask 0010110101000000
          -96 callsubr
          hintmask 0101110110000000
          -52 callsubr
          endchar
        </CharString>
        <CharString name="gbreve">
          -83 -48 callgsubr
          35 76 67 -20 23 -20 17 callgsubr
          hintmask 1001110000100100
          -82 callgsubr
          hintmask 0101101000100010
          -99 callsubr
          hintmask 0010110000101000
          -96 callsubr
          hintmask 0101110000110000
          -52 callsubr
          hintmask 0000000101000000
          -46 16 callgsubr
        </CharString>
        <CharString name="gcircumflex">
          -83 -48 callgsubr
          36 21 128 -20 17 callgsubr
          hintmask 1001110001001000
          -82 callgsubr
          hintmask 0101101001000100
          -99 callsubr
          hintmask 0010110001010000
          -96 callsubr
          hintmask 0101110001100000
          -52 callsubr
          hintmask 0000000110000000
          236 866 -98 callsubr
        </CharString>
        <CharString name="gcommaaccent">
          -83 -26 callgsubr
          19 -20 62 14 callgsubr
          26 -21 171 -20 17 callgsubr
          hintmask 1001011000100100
          -82 callgsubr
          hintmask 0101010100100010
          -99 callsubr
          hintmask 0010011000101000
          -96 callsubr
          hintmask 0101011000110000
          -52 callsubr
          hintmask 0000100011000000
          88 935 38 callgsubr
        </CharString>
        <CharString name="gdotaccent">
          -83 -48 callgsubr
          28 -51 callgsubr
          29 108 49 14 callsubr
          72 4 callgsubr
          hintmask 100111011111010010000000
          360 -101 callgsubr
          hintmask 010111011111100100000000
          -37 callgsubr
          hintmask 010110111111010001000000
          -99 callsubr
          hintmask 001011011111010100000000
          -96 callsubr
          hintmask 010111011111011000000000
          -52 callsubr
          hintmask 010111011111100100000000
          141 817 -43 callsubr
        </CharString>
        <CharString name="germandbls">
          64 -21 83 590 78 hstemhm
          24 117 -103 100 158 97 -14 112 hintmask 11101000
          135 8 rmoveto
          6 466 rlineto
          14 3 21 1 16 vhcurveto
          46 1 -5 81 66 hhcurveto
          43 46 -13 -51 -61 -58 -72 -33 -47 hvcurveto
          -6 -8 -3 -7 -10 vvcurveto
          hintmask 11100100
          -60 183 -92 -95 vvcurveto
          -37 -8 -37 -45 -27 -41 31 24 -11 vhcurveto
          -63 -61 rlineto
          -44 28 63 -33 51 hhcurveto
          88 77 82 87 100 -98 56 -61 61 hvcurveto
          -8 8 -15 13 12 vvcurveto
          11 9 8 6 8 vhcurveto
          hintmask 11011000
          43 51 26 51 69 vvcurveto
          91 -106 43 -77 -61 -74 -30 -63 -17 vhcurveto
          -17 -61 -1 -102 -2 -63 rrcurveto
          hintmask 11101000
          -5 -136 -4 -136 -5 -136 rrcurveto
          endchar
        </CharString>
        <CharString name="grave">
          -364 548 5 callsubr
          hintmask 10100000
          165 600 rmoveto
          hintmask 10010000
          -5 callgsubr
          hintmask 01100000
          15 callsubr
        </CharString>
        <CharString name="grave.cap">
          573 -21 163 -20 hstem
          247 600 rmoveto
          -110 115 -85 -56 15 callsubr
        </CharString>
        <CharString name="greater">
          56 callsubr
          119 413 rmoveto
          204 -137 -196 -149 rlineto
          hintmask 01110000
          58 -63 275 212 -296 202 rlineto
          endchar
        </CharString>
        <CharString name="greaterequal">
          23 -17 76 184 71 -71 82 -76 69 -65 61 -33 21 211 -20 363 -20 hstem
          135 445 rmoveto
          193 -144 -185 -156 54 -66 261 222 -280 212 rlineto
          -111 -530 rmoveto
          111 hlineto
          62 -1 22 4 40 1 205 7 rcurveline
          71 vlineto
          -166 -11 rlineto
          -12 -10 -1 -9 -18 -17 1 -23 hhcurveto
          -177 -1 rlineto
          endchar
        </CharString>
        <CharString name="guillemotleft">
          30 11 21 85 -21 316 -20 96 -20 hstem
          201 402 rmoveto
          -168 -148 142 -146 101 -9 -125 162 134 145 rlineto
          62 -1 rmoveto
          -109 -136 104 -161 92 -12 -104 165 127 151 rlineto
          endchar
        </CharString>
        <CharString name="guillemotright">
          34 29 21 69 -21 305 -20 98 -20 hstem
          385 104 rmoveto
          126 149 -124 150 rlineto
          -84 hlineto
          114 -150 -126 -151 rlineto
          -96 -4 rmoveto
          143 167 -131 133 rlineto
          -87 hlineto
          110 -137 -106 -163 rlineto
          endchar
        </CharString>
        <CharString name="guilsinglleft">
          -145 37 21 71 -21 316 -20 79 -20 hstem
          194 424 rmoveto
          -156 -160 148 -156 rlineto
          99 hlineto
          -120 151 124 165 rlineto
          endchar
        </CharString>
        <CharString name="guilsinglright">
          -106 34 21 64 -21 311 -20 91 -20 hstem
          249 98 rmoveto
          149 154 -149 157 rlineto
          -104 hlineto
          123 -157 -123 -154 rlineto
          endchar
        </CharString>
        <CharString name="h">
          2 -49 callgsubr
        </CharString>
        <CharString name="hbar">
          -56 callgsubr
        </CharString>
        <CharString name="hcircumflex">
          2 86 callsubr
          26 -49 callsubr
          -131 743 -98 callsubr
        </CharString>
        <CharString name="hungarumlaut">
          564 21 -2 -21 134 -20 33 78 callgsubr
          48 567 8 callgsubr
          hintmask 01100000
          27 callgsubr
          rlineto
          hintmask 10010000
          26 callgsubr
        </CharString>
        <CharString name="hungarumlaut.cap">
          583 -21 147 -20 hstem
          48 567 8 callgsubr
          27 callgsubr
          26 callgsubr
        </CharString>
        <CharString name="hyphen">
          -7 callsubr
        </CharString>
        <CharString name="i">
          -74 callgsubr
        </CharString>
        <CharString name="iacute">
          -40 callgsubr
        </CharString>
        <CharString name="icircumflex">
          -33 callgsubr
        </CharString>
        <CharString name="idieresis">
          -46 callgsubr
        </CharString>
        <CharString name="igrave">
          -39 callsubr
        </CharString>
        <CharString name="ij">
          -79 callsubr
        </CharString>
        <CharString name="imacron">
          -30 callsubr
        </CharString>
        <CharString name="infinity">
          91 167 41 91 callgsubr
          125 -42 89 callgsubr
          hstemhm
          84 41 0 84 0 41 0 83 91 callgsubr
          125 0 42 hintmask 0101011010101000
          375 458 rmoveto
          -42 -42 vlineto
          hintmask 1000101010010000
          -41 -41 -42 -42 42 vlineto
          hintmask 0101011010101000
          -41 41 hlineto
          hintmask 1000101010010000
          -84 -41 -41 -167 41 -41 84 41 hlineto
          hintmask 1010011010101000
          41 42 83 hlineto
          hintmask 1001011010101000
          -42 42 -41 125 41 42 208 -42 42 vlineto
          hintmask 1000100101010000
          -42 vmoveto
          -125 -41 hlineto
          hintmask 1010011010101000
          -42 -42 -41 -42 hlineto
          hintmask 1010010101010000
          41 -41 hlineto
          hintmask 0101011010101000
          42 -42 hlineto
          hintmask 0101011001010000
          125 208 hlineto
          hintmask 1010011010101000
          -291 -41 rmoveto
          -84 hlineto
          hintmask 1010011010010000
          -167 84 vlineto
          hintmask 1000101010101000
          42 41 83 vlineto
          hintmask 1010011010010000
          -41 42 hlineto
          endchar
        </CharString>
        <CharString name="integral">
          286 -166 41 749 42 hstem
          292 83 vstem
          333 666 rmoveto
          -42 -41 -749 -83 42 -42 -42 42 -41 124 41 42 749 83 -41 42 41 -42 42 -125 vlineto
          endchar
        </CharString>
        <CharString name="iogonek">
          -59 callsubr
        </CharString>
        <CharString name="itilde">
          -65 callsubr
        </CharString>
        <CharString name="j">
          -37 callsubr
        </CharString>
        <CharString name="jcircumflex">
          -48 callsubr
        </CharString>
        <CharString name="k">
          -63 -32 21 685 -20 hstemhm
          34 45 callsubr
          hintmask 11001000
          467 -20 callsubr
        </CharString>
        <CharString name="kcommaaccent">
          -63 58 callgsubr
          34 45 callsubr
          hintmask 0010100100000000
          467 -24 callsubr
          -158 -212 -57 callgsubr
        </CharString>
        <CharString name="l">
          -354 -2 21 671 75 callgsubr
          hintmask 11001000
          183 1 callsubr
        </CharString>
        <CharString name="lacute">
          -44 callsubr
        </CharString>
        <CharString name="lcaron">
          -354 -2 21 439 49 callgsubr
          40 75 callgsubr
          hintmask 11010010
          183 2 callgsubr
          98 -21 -31 callsubr
        </CharString>
        <CharString name="lcommaaccent">
          -354 54 callsubr
          34 97 -86 95 -83 74 hintmask 0001100100000000
          183 -7 callgsubr
          -56 -723 -57 callgsubr
        </CharString>
        <CharString name="ldot">
          -165 -2 21 271 -21 40 21 53 -20 65 -20 282 75 callgsubr
          hintmask 1000010010000000
          183 -16 callsubr
          hintmask 1000001100000000
          -45 callsubr
          hintmask 1000001001000000
          -78 callgsubr
          hintmask 1000010010000000
          hintmask 0111100000000000
          191 -210 rmoveto
          0 callgsubr
          endchar
        </CharString>
        <CharString name="less">
          56 callsubr
          403 478 rmoveto
          -296 -202 rlineto
          hintmask 01110000
          275 -212 58 63 -196 149 204 137 rlineto
          endchar
        </CharString>
        <CharString name="lessequal">
          23 -9 62 -49 -21 298 21 211 -20 363 -20 hstemhm
          hintmask 10111000
          402 513 rmoveto
          -280 -212 261 -222 54 66 -185 156 193 144 rlineto
          60 -392 rmoveto
          -177 1 rlineto
          -23 -17 -1 -18 -10 -9 1 -12 hhcurveto
          -172 11 rlineto
          -71 vlineto
          211 -7 rlineto
          hintmask 01111000
          -2 40 22 -2 40 hhcurveto
          133 hlineto
          endchar
        </CharString>
        <CharString name="logicalnot">
          37 178 21 208 92 -88 68 hstemhm
          434 92 hintmask 11010000
          526 178 rmoveto
          hintmask 10110000
          301 -492 vlineto
          -18 -68 rlineto
          418 -233 hlineto
          endchar
        </CharString>
        <CharString name="lozenge">
          286 42 41 0 84 0 83 0 41 0 125 125 83 0 42 hstemhm
          125 42 0 89 callgsubr
          0 83 0 89 callgsubr
          0 42 hintmask 1010110101001010
          292 666 rmoveto
          -42 -42 -83 88 callgsubr
          -41 -41 -42 hlineto
          hintmask 1010110010101010
          -84 -42 -125 42 -41 42 -83 41 -84 42 -41 83 41 42 84 41 83 42 41 42 125 -42 42 vlineto
          hintmask 1010101100101010
          -42 83 hlineto
          hintmask 1010110101010101
          -41 83 -42 42 hlineto
          -42 vmoveto
          -83 -83 -42 -41 -41 -84 -42 hlineto
          hintmask 1010101100101010
          -125 42 88 callgsubr
          -41 41 vlineto
          hintmask 0101001101001010
          -83 42 88 callgsubr
          -84 83 vlineto
          hintmask 1001001101010010
          84 42 vlineto
          hintmask 1010110101010101
          83 41 41 42 125 -42 42 -41 83 88 callgsubr
          -42 83 hlineto
          endchar
        </CharString>
        <CharString name="lslash">
          -299 27 callsubr
          hstemhm
          24 73 callsubr
          24 6 callsubr
        </CharString>
        <CharString name="m">
          373 -74 callsubr
        </CharString>
        <CharString name="macron">
          3 callsubr
        </CharString>
        <CharString name="macron.cap">
          3 callsubr
        </CharString>
        <CharString name="minus">
          23 243 71 -70 -21 82 -20 hstemhm
          hintmask 10000000
          529 303 rmoveto
          -221 -6 rlineto
          -1 -43 -25 -2 -43 hhcurveto
          -19 -1 -10 4 -18 1 rrcurveto
          hintmask 01100000
          -95 7 rlineto
          -71 vlineto
          191 -7 rlineto
          -1 36 20 -3 36 hhcurveto
          26 14 2 1 26 hvcurveto
          133 7 rlineto
          endchar
        </CharString>
        <CharString name="mu">
          -31 callgsubr
        </CharString>
        <CharString name="multiply">
          23 57 -21 67 23 337 -20 191 -20 hstem
          146 36 rmoveto
          43 52 44 52 46 49 157 -149 rcurveline
          23 19 23 19 22 19 -78 59 rcurveline
          1 hlineto
          -34 26 -33 27 -35 25 168 154 rcurveline
          -31 27 rlineto
          -1 vlineto
          -9 10 -10 10 -11 9 -49 -44 -49 -41 -50 -43 -154 148 rcurveline
          -21 -21 -23 -19 -20 -22 55 -44 49 -49 54 -44 -147 -162 rcurveline
          endchar
        </CharString>
        <CharString name="n">
          56 -3 callsubr
          hstemhm
          458 107 -102 104 hintmask 11010100
          -60 callgsubr
          hintmask 10101000
          -78 callsubr
          hintmask 11010100
          -60 callsubr
          hintmask 10101000
          1 callgsubr
          endchar
        </CharString>
        <CharString name="nacute">
          56 -3 callsubr
          63 -69 callsubr
          458 107 -102 104 hintmask 1101101101000000
          -60 callgsubr
          hintmask 1010101110000000
          -78 callsubr
          hintmask 1101101101000000
          -60 callsubr
          hintmask 1010101110000000
          1 callgsubr
          hintmask 1010101101000000
          hintmask 1010011110000000
          -213 547 -90 callgsubr
        </CharString>
        <CharString name="napostrophe">
          56 -4 -21 35 21 156 -20 28 -20 224 73 -56 67 20 50 callsubr
          hintmask 0100101010000000
          -60 callgsubr
          hintmask 0100010100000000
          -78 callsubr
          hintmask 0100101010000000
          -60 callsubr
          hintmask 0100010100000000
          1 callgsubr
          hintmask 0100010010000000
          hintmask 1001000000000000
          -393 -35 rmoveto
          hintmask 1010000000000000
          -84 callsubr
          endchar
        </CharString>
        <CharString name="ncaron">
          56 -3 callsubr
          82 21 128 50 callsubr
          hintmask 11010001
          -60 callgsubr
          hintmask 10100010
          -78 callsubr
          hintmask 11010001
          -60 callsubr
          hintmask 10100010
          1 callgsubr
          hintmask 10100001
          hintmask 00001100
          -297 633 -80 callsubr
        </CharString>
        <CharString name="ncommaaccent">
          56 47 callgsubr
          458 107 -102 104 hintmask 0001101010000000
          -60 callgsubr
          hintmask 0001010100000000
          -78 callsubr
          hintmask 0001101010000000
          -60 callsubr
          hintmask 0001010100000000
          1 callgsubr
          hintmask 0001010010000000
          hintmask 1010000000000000
          -161 -254 -57 callgsubr
        </CharString>
        <CharString name="nine">
          -107 -11 77 77 60 0 93 207 69 hstemhm
          46 97 154 96 hintmask 11011100
          393 407 rmoveto
          110 -76 55 -105 -119 -47 -67 -112 -94 65 -96 101 27 52 23 23 15 vhcurveto
          -80 -18 11 -103 -89 hhcurveto
          -46 -21 35 42 -4 hvcurveto
          -81 hlineto
          -100 70 -54 94 52 64 20 53 20 vhcurveto
          38 100 -3 146 99 vvcurveto
          -250 5 rmoveto
          51 27 40 56 54 17 -76 -42 vhcurveto
          hintmask 10111100
          -46 -20 -43 -52 vhcurveto
          -69 8 -13 47 61 vvcurveto
          endchar
        </CharString>
        <CharString name="notequal">
          23 -38 17 47 -21 23 52 54 86 -84 84 -83 88 -86 81 47 84 -46 87 -87 101 -94 85 -80 75 -73 84 143 -20 hstemhm
          77 82 298 81 hintmask 1110010000001111
          535 403 rmoveto
          -137 hlineto
          74 125 -76 18 -84 -151 rlineto
          hintmask 1110010010000111
          -1 -29 -29 -2 -29 hhcurveto
          hintmask 1110010000100111
          -25 -13 3 2 -25 hvcurveto
          hintmask 1110010001000111
          -126 9 rlineto
          hintmask 1110010000001111
          -87 230 vlineto
          -43 -92 rlineto
          -171 hlineto
          hintmask 1110100100000111
          -11 -91 rlineto
          134 hlineto
          -64 -121 77 -10 71 133 rlineto
          hintmask 1110001100000111
          35 36 1 35 hhcurveto
          hintmask 1111000100000111
          51 51 -3 -2 51 hvcurveto
          9 86 rlineto
          -219 hlineto
          hintmask 1110010010000111
          40 85 rlineto
          5 5 0 5 hhcurveto
          hintmask 1110010000010111
          172 12 rlineto
          endchar
        </CharString>
        <CharString name="ntilde">
          56 -3 callsubr
          113 -29 callsubr
          458 107 -102 104 hintmask 1101000000100000
          -60 callgsubr
          hintmask 1010000001000000
          -78 callsubr
          hintmask 1101000000100000
          -60 callsubr
          hintmask 1010000001000000
          1 callgsubr
          hintmask 1010000000100000
          hintmask 0000010010000000
          -60 -39 callgsubr
        </CharString>
        <CharString name="numbersign">
          112 14 21 124 93 -89 87 -85 83 71 85 -81 84 -80 88 -87 80 -80 82 149 -20 hstemhm
          203 91 -89 86 -84 87 -84 86 99 88 -84 91 -88 85 hintmask 100100010100100100000000
          490 408 rmoveto
          151 -93 vlineto
          hintmask 100100100100100010000000
          5 -154 rlineto
          hintmask 100110000100101000000000
          -8 -8 -1 -8 hhcurveto
          hintmask 100101000100101000000000
          -28 -29 2 1 -28 hvcurveto
          -4 143 rlineto
          hintmask 100100100101001000000000
          -84 hlineto
          hintmask 100100001101001000000000
          -140 -143 -80 146 vlineto
          hintmask 100100100100011000000000
          2 -88 rlineto
          -6 -7 -1 -7 -1 -2 0 -1 hhcurveto
          hintmask 110000100100101000000000
          76 callsubr
          -6 1 -8 -6 vvcurveto
          hintmask 100100100110001000000000
          -10 -126 rlineto
          85 142 112 -132 80 138 128 hlineto
          hintmask 101000100100101000000000
          88 -123 vlineto
          hintmask 100110000100101000000000
          69 149 94 vlineto
          hintmask 100100010100100100000000
          -231 -166 rmoveto
          -105 78 107 -22 hlineto
          -19 -1 -18 -1 -19 vhcurveto
          endchar
        </CharString>
        <CharString name="o">
          -30 1 73 334 82 hstemhm
          17 -22 callgsubr
          hintmask 11011000
          396 -47 callsubr
          hintmask 11101000
          -104 callgsubr
          endchar
        </CharString>
        <CharString name="oacute">
          45 callgsubr
          56 21 11 -21 139 -20 47 -2 callgsubr
          hintmask 1011011011000000
          -67 callsubr
          hintmask 1011011101000000
          -104 callgsubr
          hintmask 0110111011000000
          -300 328 -90 callgsubr
        </CharString>
        <CharString name="obreve">
          0 callsubr
          75 76 67 -20 23 -2 callgsubr
          hintmask 11000011
          -67 callsubr
          hintmask 11000101
          -104 callgsubr
          hintmask 00101000
          -385 424 -36 callsubr
        </CharString>
        <CharString name="ocircumflex">
          0 callsubr
          76 21 128 -2 callgsubr
          hintmask 11000110
          -67 callsubr
          hintmask 11001010
          -104 callgsubr
          hintmask 00110000
          -103 408 -98 callsubr
        </CharString>
        <CharString name="odieresis">
          -56 callsubr
        </CharString>
        <CharString name="oe">
          -77 callgsubr
        </CharString>
        <CharString name="ogonek">
          -198 -21 258 -20 hstem
          55 86 vstem
          172 34 -19 callgsubr
        </CharString>
        <CharString name="ograve">
          -54 callsubr
        </CharString>
        <CharString name="ohungarumlaut">
          -63 callgsubr
        </CharString>
        <CharString name="omacron">
          -43 callgsubr
        </CharString>
        <CharString name="one">
          -107 0 21 553 -20 hstemhm
          101 97 -93 87 17 80 hintmask 11101000
          297 266 rmoveto
          40 -3 23 -1 40 vhcurveto
          -8 205 rlineto
          hintmask 11011000
          -180 -116 33 -66 64 38 rlineto
          2 -30 5 -34 -30 vvcurveto
          -41 -2 -23 -1 -41 vhcurveto
          -6 -210 88 -21 6 177 rlineto
          1 35 2 19 35 vvcurveto
          endchar
        </CharString>
        <CharString name="onehalf">
          287 -75 21 17 -21 33 71 -71 76 -66 71 223 67 383 -20 hstemhm
          138 114 -103 93 475 88 hintmask 1001011011000000
          242 720 rmoveto
          -78 6 -16 -52 -48 -30 -55 -9 rlinecurve
          -4 -79 18 9 60 18 9 12 rlinecurve
          21 -244 114 17 rlineto
          405 361 rmoveto
          -70 -3 -430 -756 rlineto
          hintmask 0101011101000000
          68 -28 rlineto
          hintmask 1010011101000000
          424 104 58 callsubr
          -27 callgsubr
          hintmask 1000111101000000
          278 21 rlineto
          hintmask 1010011101000000
          61 vlineto
          endchar
        </CharString>
        <CharString name="onequarter">
          287 -56 21 761 -20 hstemhm
          144 101 -96 105 425 79 -79 140 -134 80 hintmask 11100010
          245 726 rmoveto
          -74 37 callgsubr
          -11 -261 rcurveline
          120 -20 rlineto
          400 384 rmoveto
          -66 -21 -437 -731 37 -30 rlineto
          571 35 rmoveto
          70 vlineto
          hintmask 11010100
          50 74 hlineto
          hintmask 11011000
          -61 16 rlineto
          217 vlineto
          -99 -22 -151 -216 -12 -62 rlineto
          183 -80 hlineto
          -86 138 rmoveto
          86 126 rlineto
          -111 vlineto
          endchar
        </CharString>
        <CharString name="onesuperior">
          -149 -56 21 398 -21 384 -20 hstemhm
          144 101 -96 115 421 80 hintmask 11101100
          264 726 rmoveto
          -93 37 callgsubr
          rrcurveto
          hintmask 11110100
          -11 -261 rlineto
          hintmask 11101100
          120 -20 rlineto
          endchar
        </CharString>
        <CharString name="ordfeminine">
          -149 440 -21 24 20 -19 19 105 65 35 61 hstem
          57 70 vstem
          368 448 rmoveto
          109 -14 -43 172 -132 hhcurveto
          -54 -38 -15 -40 -43 hvcurveto
          40 -45 9 4 6 4 9 5 rlinecurve
          12 22 22 14 24 hhcurveto
          13 34 -15 -38 27 hvcurveto
          -32 10 rlineto
          4 -13 -13 4 -4 hhcurveto
          -57 -74 -28 -81 -54 32 -49 59 49 56 38 44 23 hvcurveto
          7 -23 3 -25 2 -23 2 -13 rcurveline
          -129 69 rmoveto
          -24 -10 21 23 27 32 9 25 12 15 -2 -7 21 hvcurveto
          -36 -12 -49 -35 -10 hhcurveto
          endchar
        </CharString>
        <CharString name="ordmasculine">
          -15 callsubr
        </CharString>
        <CharString name="oslash">
          -30 -122 21 102 73 -72 72 334 81 124 -20 hstemhm
          17 84 callsubr
          496 229 rmoveto
          74 -77 75 -54 43 vhcurveto
          67 168 -98 24 -51 -135 rlineto
          8 -13 -14 3 -15 74 callgsubr
          -92 46 -75 82 -41 hvcurveto
          -34 -135 96 -18 29 125 rlineto
          -2 4 19 0 4 hhcurveto
          123 110 104 124 hvcurveto
          -158 122 rmoveto
          27 -35 31 -64 -45 vvcurveto
          6 callgsubr
          -12 -11 1 3 -11 vhcurveto
          23 99 7 31 9 27 13 33 rlinecurve
          -49 138 rmoveto
          -34 -91 -12 -32 -11 -30 -6 -32 rlinecurve
          -25 -97 rlineto
          -34 34 -17 48 48 vvcurveto
          71 42 83 81 5 6 -1 -1 5 vhcurveto
          endchar
        </CharString>
        <CharString name="otilde">
          -70 callsubr
        </CharString>
        <CharString name="p">
          -40 69 callgsubr
          34 50 callgsubr
          280 -42 callgsubr
        </CharString>
        <CharString name="paragraph">
          9 -36 22 15 -21 755 -20 hstemhm
          212 85 -81 83 97 122 -115 109 -109 157 hintmask 10101100
          299 619 rmoveto
          hintmask 01110010
          104 14 rlineto
          -653 109 643 vlineto
          hintmask 10110001
          48 112 hlineto
          -241 -3 rlineto
          -8 -10 0 1 -8 hvcurveto
          1 -7 -8 1 -5 hhcurveto
          -121 -119 -88 -124 -3 12 -31 3 -8 hvcurveto
          26 -63 52 -51 79 -3 22 -378 rcurveline
          hintmask 10101100
          72 hlineto
          endchar
        </CharString>
        <CharString name="parenleft">
          -342 28 callsubr
          14 88 vstem
          108 -32 callgsubr
        </CharString>
        <CharString name="parenright">
          -342 -8 callgsubr
        </CharString>
        <CharString name="partialdiff">
          30 18 callsubr
          54 100 hintmask 01111111
          487 654 rmoveto
          -32 45 -49 32 -60 8 -91 -44 rcurveline
          58 -3 48 -25 36 -39 28 -51 rcurveline
          27 -56 1 -78 -9 -66 rrcurveto
          35 -48 -56 74 -55 hhcurveto
          -130 -104 -124 -117 -22 hvcurveto
          hintmask 10111111
          -143 -26 88 -101 141 hhcurveto
          126 120 111 121 38 hvcurveto
          9 30 6 31 6 30 17 90 -5 106 -31 78 rrcurveto
          -387 -338 rmoveto
          69 13 54 76 77 hhcurveto
          100 34 -104 -81 -15 hvcurveto
          -57 -11 -46 -87 -69 hhcurveto
          -101 -55 87 97 19 hvcurveto
          endchar
        </CharString>
        <CharString name="percent">
          175 16 21 -1 64 0 161 0 68 42 65 0 160 0 68 hstemhm
          42 69 143 72 81 77 -70 77 126 77 hintmask 1010010110110000
          617 165 rmoveto
          -28 -20 -37 -32 vhcurveto
          hintmask 0101010111010000
          -45 -36 41 44 33 19 43 38 42 34 -59 -37 hvcurveto
          -363 354 89 callsubr
          -47 -38 25 49 32 23 54 38 41 41 -35 -42 vhcurveto
          440 -342 rmoveto
          73 -79 79 -74 -79 -55 -71 -76 -84 66 -62 86 74 61 69 72 vhcurveto
          -368 356 rmoveto
          hintmask 1010101110110000
          72 -81 59 -67 -84 -52 -86 -77 -82 71 -48 78 77 58 92 70 vhcurveto
          267 64 rmoveto
          -75 50 -201 65 callsubr
          57 -58 240 285 28 37 12 23 26 39 rlinecurve
          endchar
        </CharString>
        <CharString name="period">
          -358 0 21 93 59 callgsubr
          hmoveto
          hintmask 11000000
          0 callgsubr
          endchar
        </CharString>
        <CharString name="periodcentered">
          22 callsubr
        </CharString>
        <CharString name="perthousand">
          509 16 21 -7 65 0 160 -155 161 -6 68 48 65 0 160 0 68 hstemhm
          43 68 -64 68 139 72 81 77 134 77 51 68 -64 68 139 72 hintmask 1010001001111011
          957 178 89 callsubr
          vhcurveto
          hintmask 0100101001111101
          64 callsubr
          72 14 47 callsubr
          -411 -27 rmoveto
          hintmask 1001001001111011
          -28 -20 -37 -32 -49 -33 41 47 32 21 41 36 41 36 -59 -37 vhcurveto
          -364 354 89 callsubr
          vhcurveto
          hintmask 1001010110111011
          64 callsubr
          441 -342 rmoveto
          74 -79 78 -74 -85 -50 -72 -80 -84 73 -57 80 74 61 69 72 vhcurveto
          -369 356 47 callsubr
          268 64 rmoveto
          -76 50 -200 65 callsubr
          56 -58 240 285 28 37 13 23 26 39 rlinecurve
          endchar
        </CharString>
        <CharString name="pi">
          100 19 21 -19 -21 375 83 24 -20 46 68 54 63 hstemhm
          27 107 33 83 167 83 hintmask 1011111110000000
          84 458 rmoveto
          -83 83 -375 83 375 167 -375 83 vlineto
          hintmask 0111111110000000
          375 83 83 -499 vlineto
          endchar
        </CharString>
        <CharString name="plus">
          23 99 21 121 94 -90 92 -87 80 151 -20 hstemhm
          233 92 -88 87 -87 92 -89 80 hintmask 1100100100000000
          329 335 rmoveto
          146 -94 vlineto
          hintmask 1001100010000000
          5 -154 rlineto
          -6 -7 -1 -6 -1 -2 0 -1 hhcurveto
          hintmask 1010101000000000
          76 callsubr
          -5 1 -6 -5 -2 0 -1 -1 vvcurveto
          hintmask 1001110000000000
          -11 -126 rlineto
          85 hlineto
          hintmask 1100101000000000
          142 155 94 vlineto
          endchar
        </CharString>
        <CharString name="plusminus">
          23 -21 125 -110 68 222 85 192 -20 152 -20 hstemhm
          240 100 hintmask 10111100
          332 124 rmoveto
          160 183 vlineto
          6 87 rlineto
          -2 -22 -23 0 -22 -19 -20 0 -19 hhcurveto
          -22 -22 0 -2 -22 hvcurveto
          -6 194 rlineto
          -26 -27 -2 -26 hhcurveto
          12 -178 -178 16 5 -30 4 -29 3 -30 rlinecurve
          1 14 13 1 14 33 33 -4 33 hhcurveto
          11 11 1 1 11 hvcurveto
          -2 -194 rlineto
          hintmask 01111100
          282 -120 rmoveto
          -4 24 -8 23 -6 23 -460 -4 rcurveline
          -15 -66 rlineto
          endchar
        </CharString>
        <CharString name="product">
          286 -104 -21 708 41 hstem
          125 84 249 84 vstem
          125 624 rmoveto
          -749 84 708 249 -708 84 749 -417 vlineto
          endchar
        </CharString>
        <CharString name="q">
          -13 68 callgsubr
          23 67 callgsubr
          377 -28 callsubr
        </CharString>
        <CharString name="question">
          -345 19 101 -99 95 -71 -21 488 99 hstemhm
          17 171 -135 77 -66 87 -85 80 -52 36 hintmask 1001000100000000
          69 120 rmoveto
          hintmask 0011000100000000
          -96 73 vlineto
          hintmask 0101001000000000
          9 88 rlineto
          hintmask 1001000100000000
          -133 397 rmoveto
          2 11 11 1 11 hhcurveto
          hintmask 0101000010000000
          23 20 -6 -26 -24 -15 -37 -6 -24 hvcurveto
          hintmask 0101010000000000
          -12 -42 -8 -42 -44 vvcurveto
          -22 1 -22 5 -21 vhcurveto
          78 5 rlineto
          -5 12 -2 13 13 vvcurveto
          hintmask 0101100000000000
          86 58 91 89 vvcurveto
          82 -63 18 -71 -13 -12 -1 -1 -13 vhcurveto
          endchar
        </CharString>
        <CharString name="questiondown">
          -345 -6 99 -74 101 461 -20 hstemhm
          20 94 -50 87 -85 80 -68 36 -36 77 hintmask 01101000
          139 485 rmoveto
          96 vlineto
          hintmask 01100100
          -73 hlineto
          -9 -88 rlineto
          133 -397 rmoveto
          hintmask 10101000
          -2 -11 -11 -1 -11 hhcurveto
          hintmask 01100010
          -23 -20 6 26 24 13 37 7 24 hvcurveto
          hintmask 01100001
          11 42 10 42 44 vvcurveto
          22 -1 22 -5 21 vhcurveto
          -78 -5 rlineto
          5 -12 2 -13 -13 vvcurveto
          hintmask 01110000
          -86 -58 -91 -89 vvcurveto
          hintmask 10101000
          -82 63 -18 71 13 12 1 1 13 vhcurveto
          endchar
        </CharString>
        <CharString name="quotedbl">
          9 callgsubr
        </CharString>
        <CharString name="quotedblbase">
          -189 -120 21 189 -20 hstem
          258 -120 23 callsubr
          -94 -11 rmoveto
          94 210 -131 -18 -29 -181 rlineto
          endchar
        </CharString>
        <CharString name="quotedblleft">
          -211 28 callgsubr
          112 64 callgsubr
          87 11 rmoveto
          -87 -212 124 18 29 183 rlineto
          endchar
        </CharString>
        <CharString name="quotedblright">
          9 callgsubr
        </CharString>
        <CharString name="quoteleft">
          -389 28 callgsubr
          111 64 callgsubr
          endchar
        </CharString>
        <CharString name="quoteright">
          34 callsubr
        </CharString>
        <CharString name="quotesinglbase">
          -350 -120 21 189 -20 hstem
          98 -120 23 callsubr
          endchar
        </CharString>
        <CharString name="quotesingle">
          34 callsubr
        </CharString>
        <CharString name="r">
          4 10 70 callgsubr
          hstem
          525 -99 callgsubr
          endchar
        </CharString>
        <CharString name="racute">
          -35 callsubr
        </CharString>
        <CharString name="radical">
          286 -104 -21 333 42 458 -20 hstemhm
          209 41 42 41 42 42 41 42 0 42 hintmask 11111110
          500 708 rmoveto
          -167 vlineto
          hintmask 11111101
          -42 -125 -41 -166 -42 -125 -42 -167 -41 125 -42 125 -41 42 -84 -42 -41 -41 41 41 84 -125 41 -125 42 -83 41 83 42 167 42 125 41 166 42 125 42 167 -42 hlineto
          endchar
        </CharString>
        <CharString name="rcaron">
          -36 callgsubr
        </CharString>
        <CharString name="rcommaaccent">
          -34 callgsubr
        </CharString>
        <CharString name="registered">
          241 -85 62 274 135 -80 80 109 70 hstem
          88 68 470 72 vstem
          -21 callsubr
          127 -242 rmoveto
          63 -8 -25 70 -81 hhcurveto
          -49 -42 -45 -41 -20 hvcurveto
          -11 77 -76 -13 31 -283 rlineto
          91 hlineto
          -10 110 rlineto
          5 -1 5 5 vvcurveto
          50 43 50 52 31 2 -33 -23 3 vhcurveto
          endchar
        </CharString>
        <CharString name="ring">
          -18 callgsubr
        </CharString>
        <CharString name="ring.cap">
          -18 callgsubr
        </CharString>
        <CharString name="s">
          -80 -1 36 callsubr
          hstem
          81 99 134 113 vstem
          29 -106 callgsubr
          endchar
        </CharString>
        <CharString name="sacute">
          -62 callgsubr
        </CharString>
        <CharString name="scaron">
          -58 callgsubr
        </CharString>
        <CharString name="scedilla">
          -70 callgsubr
        </CharString>
        <CharString name="scircumflex">
          -61 callsubr
        </CharString>
        <CharString name="scommaaccent">
          -63 callsubr
        </CharString>
        <CharString name="section">
          -107 -4 67 308 83 111 76 hstemhm
          39 90 -61 92 109 101 -71 100 hintmask 11110100
          19 49 rmoveto
          -40 48 63 -13 61 hhcurveto
          93 86 17 111 37 -7 20 -27 27 hvcurveto
          hintmask 11101010
          46 25 17 31 52 vvcurveto
          86 -80 52 -75 vhcurveto
          -10 -10 -2 -11 hhcurveto
          -29 -24 13 32 48 42 20 37 35 37 -18 -17 29 hvcurveto
          47 63 rlineto
          31 -38 -46 17 -49 hhcurveto
          -57 -129 -43 -93 -31 18 -40 18 -24 hvcurveto
          hintmask 11110100
          -31 -21 -34 -41 -40 vvcurveto
          -33 22 -77 57 -12 vhcurveto
          48 -10 103 24 -75 vvcurveto
          -44 -23 -18 -43 -50 -56 28 30 -38 vhcurveto
          233 225 rmoveto
          hintmask 11110010
          5 -8 2 -10 -9 vvcurveto
          -37 -21 -24 -35 -33 -81 12 33 46 42 22 38 29 29 -12 -13 25 vhcurveto
          endchar
        </CharString>
        <CharString name="semicolon">
          -351 -120 21 503 59 callgsubr
          290 rmoveto
          hintmask 11000000
          0 callgsubr
          60 -431 23 callsubr
          endchar
        </CharString>
        <CharString name="seven">
          -107 -40 21 448 91 -86 83 3 78 callgsubr
          393 422 rmoveto
          hintmask 10010000
          98 -340 vlineto
          hintmask 11000000
          -91 241 vlineto
          -108 -165 -81 -273 91 -31 39 159 7 31 0 19 12 29 rlinecurve
          13 32 15 14 18 29 rrcurveto
          endchar
        </CharString>
        <CharString name="six">
          -107 2 67 227 81 100 75 hstemhm
          32 95 -79 94 196 86 hintmask 11110100
          50 213 rmoveto
          -2 0 -2 -3 -8 -1 -9 -9 vvcurveto
          -114 3 84 -64 109 hhcurveto
          6 hlineto
          120 10 53 91 104 vvcurveto
          102 -3 -100 68 -95 hhcurveto
          -25 -25 -9 -11 -22 hvcurveto
          59 12 20 61 73 hhcurveto
          65 37 -27 -21 18 hvcurveto
          39 66 rlineto
          22 -36 -15 35 -101 hhcurveto
          hintmask 11101100
          -152 -66 -143 -125 hvcurveto
          -23 2 -24 -24 vvcurveto
          288 -14 rmoveto
          -56 -35 -74 -64 -50 -47 81 44 44 32 58 50 54 60 -40 -57 vhcurveto
          endchar
        </CharString>
        <CharString name="slash">
          -211 -35 21 714 -20 hstem
          344 676 rmoveto
          -98 24 -86 -229 -17 -45 -12 -24 -14 -46 rlinecurve
          -94 -373 96 -18 54 232 10 45 3 27 14 44 rlinecurve
          96 242 rlineto
          endchar
        </CharString>
        <CharString name="space">
          -370 endchar
        </CharString>
        <CharString name="sterling">
          -107 -94 62 36 96 -83 58 90 71 -26 73 -5 69 74 87 hstemhm
          22 144 hintmask 10110111
          399 477 rmoveto
          20 -38 -42 11 -43 hhcurveto
          -124 -89 66 callgsubr
          5 -19 -2 -67 3 -38 rlinecurve
          -44 1 rlineto
          hintmask 11010111
          -77 382 96 -236 vlineto
          hintmask 10101011
          110 164 vlineto
          17 73 -47 1 -90 2 -47 2 rlinecurve
          106 18 58 27 51 hhcurveto
          27 26 -8 -11 24 hvcurveto
          endchar
        </CharString>
        <CharString name="summation">
          286 -125 83 63 -21 583 41 hstemhm
          84 83 -42 84 -42 83 -41 83 -42 83 hintmask 11110010
          84 624 rmoveto
          -83 41 -41 vlineto
          hintmask 11101001
          42 -84 hlineto
          hintmask 11110010
          42 -41 hlineto
          hintmask 11101001
          41 -84 hlineto
          hintmask 11100100
          42 -41 -42 -83 -41 -42 hlineto
          hintmask 11110010
          -42 -83 hlineto
          hintmask 11100100
          -42 -42 hlineto
          hintmask 11101001
          -41 -125 hlineto
          hintmask 11110010
          458 83 -375 42 85 callgsubr
          hintmask 11110010
          85 callgsubr
          hintmask 11100100
          42 41 hlineto
          hintmask 11110010
          -42 84 hlineto
          hintmask 11110001
          -41 41 hlineto
          hintmask 11110010
          -42 84 hlineto
          hintmask 11100100
          -41 41 hlineto
          hintmask 11101001
          -42 42 hlineto
          hintmask 11110010
          375 41 -458 hlineto
          endchar
        </CharString>
        <CharString name="t">
          -255 -41 callsubr
        </CharString>
        <CharString name="tbar">
          -53 callgsubr
        </CharString>
        <CharString name="tcaron">
          -55 callsubr
        </CharString>
        <CharString name="tcommaaccent">
          -98 callgsubr
          -37 -224 -57 callgsubr
        </CharString>
        <CharString name="thorn">
          57 callgsubr
          10 122 -87 51 callsubr
          hintmask 11110101
          10 callsubr
          hintmask 11110110
          54 callgsubr
          hintmask 11111001
          56 callgsubr
          83 callgsubr
        </CharString>
        <CharString name="three">
          -107 -33 94 173 71 175 94 hstemhm
          124 160 0 105 hintmask 11110000
          223 61 rmoveto
          -32 -67 44 22 0 1 1 0 hvcurveto
          -71 -50 rlineto
          -58 36 55 -53 73 hhcurveto
          hintmask 11101000
          89 82 89 88 67 -46 39 -61 17 hvcurveto
          58 26 45 47 66 vvcurveto
          86 -77 82 -87 -74 -56 -57 -59 -37 vhcurveto
          71 -50 rlineto
          hintmask 11110000
          0 -1 0 1 vvcurveto
          15 61 56 40 38 21 -44 -33 -64 -63 -34 -58 vhcurveto
          -2 -3 0 -2 hhcurveto
          -3 -71 rlineto
          57 -3 74 -29 -68 vvcurveto
          -33 -25 -40 -36 vhcurveto
          endchar
        </CharString>
        <CharString name="threequarters">
          287 -30 21 62 66 -60 63 -56 59 227 75 callsubr
          2 -20 hstemhm
          199 118 -99 99 361 98 -95 101 -97 104 hintmask 1010001110010100
          32 472 rmoveto
          hintmask 1010100110100100
          -104 69 -16 99 82 callsubr
          vhcurveto
          -15 callgsubr
          hintmask 1010001110010100
          24 9 -23 -21 hvcurveto
          hintmask 1010100110010100
          77 callsubr
          hintmask 1010010101010100
          -85 -7 rlineto
          653 262 rmoveto
          -62 9 -433 -763 79 11 rlineto
          hintmask 1010001110011000
          519 -7 rmoveto
          -8 50 rlineto
          hintmask 1100001110010100
          57 29 rlineto
          67 vlineto
          hintmask 1010001110010010
          -36 223 hlineto
          hintmask 1010001110011000
          -111 hlineto
          hintmask 1001001110010100
          -172 -218 rlineto
          -59 vlineto
          hintmask 1001001110010010
          179 -81 hlineto
          hintmask 1010001110011000
          hintmask 1001001110010100
          -77 140 rmoveto
          hintmask 1010001110010010
          77 115 rlineto
          hintmask 1001001110010010
          -115 vlineto
          endchar
        </CharString>
        <CharString name="threesuperior">
          -149 -30 21 62 66 233 75 callsubr
          hstemhm
          205 118 -105 99 -93 99 355 98 hintmask 1100111010100000
          38 472 rmoveto
          hintmask 1110011010100000
          -104 69 -16 99 vhcurveto
          hintmask 1100111100100000
          82 callsubr
          hvcurveto
          -15 callgsubr
          hintmask 1100111001100000
          24 9 -23 -21 hvcurveto
          hintmask 1110011010100000
          77 callsubr
          hintmask 1101011010100000
          -85 -7 rlineto
          endchar
        </CharString>
        <CharString name="tilde">
          596 -29 callsubr
          hintmask 01001000
          247 709 -6 callsubr
          hintmask 00100000
          -80 callgsubr
          hintmask 10010000
          -46 callsubr
        </CharString>
        <CharString name="tilde.cap">
          598 66 -47 -21 28 40 -40 68 10 -20 hstemhm
          hintmask 01101000
          253 702 rmoveto
          -21 -12 -20 -17 -25 hhcurveto
          hintmask 01010000
          -31 -23 28 -50 hhcurveto
          -37 -36 -17 -29 -23 hvcurveto
          50 -50 rlineto
          16 12 22 12 20 hhcurveto
          hintmask 10001000
          34 15 -26 40 hhcurveto
          35 66 26 35 15 hvcurveto
          endchar
        </CharString>
        <CharString name="trademark">
          4535 1 73 -72 72 -61 77 -77 104 -92 109 147 68 -45 184 -135 85 -58 118 -118 123 -104 39 -39 73 -64 80 -72 67 -58 63 -63 96 279 -20 hstemhm
          15 86 -69 131 248 131 67 127 -127 129 119 128 28 62 callsubr
          -75 132 -27 96 12 134 20 122 -79 71 -70 63 638 101 -100 101 278 99 128 119 -108 109 210 103 -99 99 209 131 -131 132 vstemhm
          3582 104 399 98 170 107 -106 124 71 85 hintmask 001001000000000111011011001101001101101011101000
          325 -106 callsubr
          -54 549 rmoveto
          -119 124 117 91 rlineto
          -139 hlineto
          hintmask 010001000001000010111010101101001101101011101000
          -85 -81 rlineto
          81 -131 -215 131 60 vlineto
          27 19 62 -79 rlineto
          870 -572 rmoveto
          -2 89 4 91 -15 88 rrcurveto
          87 -16 -49 107 -103 hhcurveto
          -85 -62 -60 -56 -49 hvcurveto
          hintmask 010001000100000010111011001101001101101011101000
          16 147 rlineto
          -209 hlineto
          hintmask 010001000000010010111011001101001101101011101000
          -87 112 -77 callsubr
          hintmask 010001000010000010111010101101001101101011101000
          -60 callsubr
          hintmask 010001001000000010111011001101001101101011101000
          1 callgsubr
          hintmask 010001001000000010111010101101001101101011101000
          -471 572 rmoveto
          215 -131 -215 vlineto
          574 hmoveto
          215 -128 -128 vlineto
          -101 128 rlineto
          -147 -215 hlineto
          hintmask 000101010000000010110111001101001101101011101000
          129 129 hlineto
          104 -129 rlineto
          500 -465 rmoveto
          23 callgsubr
          hintmask 000101010000000010111011001110001101101011101000
          47 -10 8 -51 -41 vvcurveto
          -42 -14 -92 -58 11 callsubr
          -38 78 callsubr
          -114 -36 -99 -87 -60 46 -182 120 62 38 30 45 38 hvcurveto
          hintmask 010001001000000010111011001100101101101011101000
          2 -75 rlineto
          hintmask 010000100000000010111010010110001101101011101000
          78 265 hlineto
          -276 362 rmoveto
          -19 -28 -1 -13 -13 -27 2 18 vhcurveto
          104 vlineto
          19 26 1 14 14 27 0 -20 vhcurveto
          134 -8 rmoveto
          67 -132 0 -43 -64 -79 -1 -60 -27 vhcurveto
          -2 -2 -2 -2 vvcurveto
          -89 vlineto
          -64 129 -1 43 41 134 0 65 vhcurveto
          751 -340 rmoveto
          106 -13 -42 115 -135 hhcurveto
          -82 -71 -83 callgsubr
          hintmask 010001000000001010111011001101001101101011101000
          79 53 118 92 vhcurveto
          hintmask 100000100000000010111011001101001101101011101000
          64 28 -67 -54 6 hvcurveto
          488 -96 rmoveto
          -60 -43 -74 -66 vhcurveto
          hintmask 100001000000100010111011001101010101101011101000
          -84 callgsubr
          -74 hvcurveto
          99 21 rmoveto
          99 -183 160 -69 -139 -88 -117 -132 -135 110 -103 137 123 109 104 124 vhcurveto
          901 -182 rmoveto
          hintmask 010001000100000010111011001101001101100111101000
          1 17 72 callgsubr
          -68 -61 -55 -57 -30 vhcurveto
          hintmask 010001001000000010111011001101001101101011101000
          54 -37 30 callgsubr
          -11 144 -222 -125 47 -86 rlineto
          hintmask 010001001000000010111011001101001110101011101000
          106 47 rlineto
          -371 vlineto
          121 5 rlineto
          -1 5 callgsubr
          hintmask 100001001000000010111011001101001101011011101000
          1 -61 2 -62 1 -61 107 13 rcurveline
          -8 219 rlineto
          65 30 88 38 callsubr
          547 294 -95 callsubr
          88 77 29 callgsubr
          -48 28 vhcurveto
          112 -51 rmoveto
          -93 callgsubr
          -146 115 -123 148 82 callgsubr
          hintmask 001001001000000010111011001101001101101011101000
          -76 callsubr
          41 52 -33 hvcurveto
          hintmask 000011001000000010111011001101001101101011101000
          566 -49 30 callsubr
          hintmask 000011000000000110111011001101001101101011011000
          48 15 -60 -34 -42 -24 -89 -55 37 callsubr
          -124 63 -119 134 47 38 25 41 22 hvcurveto
          11 -81 rlineto
          78 283 hlineto
          396 -41 15 callgsubr
          hintmask 001001000000100010111011001101001101101011101000
          -101 callsubr
          -5 callsubr
          endchar
        </CharString>
        <CharString name="two">
          -107 14 88 -83 79 397 94 hstemhm
          59 106 98 100 hintmask 01111000
          381 94 rmoveto
          hintmask 10111000
          -212 8 rlineto
          -3 3 -1 7 4 64 198 124 149 vvcurveto
          68 -66 68 -68 -70 -61 -58 -56 -35 vhcurveto
          71 -50 rlineto
          0 -1 1 0 vhcurveto
          16 49 53 35 25 21 -21 -25 -59 -108 -119 -35 -49 vhcurveto
          -22 -30 -39 -57 -27 vvcurveto
          -28 1 -28 1 -28 vhcurveto
          320 -10 rlineto
          endchar
        </CharString>
        <CharString name="twosuperior">
          -149 -75 21 39 71 298 72 -61 -21 315 67 3 -20 hstemhm
          149 93 15 88 hintmask 11100111
          200 426 58 callsubr
          hintmask 11011011
          -27 callgsubr
          278 21 rlineto
          hintmask 11100111
          61 vlineto
          endchar
        </CharString>
        <CharString name="u">
          -3 1 89 -86 -21 490 36 callgsubr
          hintmask 10110000
          -107 callsubr
          hintmask 01110000
          -82 callsubr
          endchar
        </CharString>
        <CharString name="uacute">
          -50 callgsubr
        </CharString>
        <CharString name="ubreve">
          -66 callsubr
        </CharString>
        <CharString name="ucircumflex">
          -50 callsubr
        </CharString>
        <CharString name="udieresis">
          -64 callgsubr
        </CharString>
        <CharString name="ugrave">
          -54 callgsubr
        </CharString>
        <CharString name="uhungarumlaut">
          -66 callgsubr
        </CharString>
        <CharString name="umacron">
          -45 callgsubr
        </CharString>
        <CharString name="underscore">
          23 -98 93 -88 85 -83 82 -82 86 hstemhm
          hintmask 00010000
          541 -12 rmoveto
          -229 5 rlineto
          1 -43 -25 1 -43 hhcurveto
          hintmask 00100000
          -57 -56 -3 -1 -57 hvcurveto
          5 -87 rlineto
          2 92 92 3 92 hhcurveto
          hintmask 01000000
          30 17 -1 -1 29 hvcurveto
          hintmask 10000000
          153 -5 rlineto
          endchar
        </CharString>
        <CharString name="uni00A0">
          -370 endchar
        </CharString>
        <CharString name="uni00AD">
          -7 callsubr
        </CharString>
        <CharString name="uni021A">
          -98 callgsubr
          -27 -224 -57 callgsubr
        </CharString>
        <CharString name="uni021B">
          -98 callgsubr
          -27 -224 -57 callgsubr
        </CharString>
        <CharString name="uni02C9">
          3 callsubr
        </CharString>
        <CharString name="uni0394">
          119 9 87 521 -20 hstem
          268 87 callsubr
          521 hlineto
          -217 608 rlineto
          -174 -521 rmoveto
          131 434 130 -434 rlineto
          endchar
        </CharString>
        <CharString name="uni03A9">
          74 -17 callsubr
        </CharString>
        <CharString name="uni03BC">
          -31 callgsubr
        </CharString>
        <CharString name="uni2215">
          36 -56 21 761 -20 hstem
          29 101 -96 105 428 89 -86 80 -79 88 -85 72 vstem
          549 726 rmoveto
          -79 -9 -424 -743 37 -30 rlineto
          endchar
        </CharString>
        <CharString name="uni2219">
          22 callsubr
        </CharString>
        <CharString name="uniF8FF">
          4535 1 73 -72 72 -61 77 -77 104 -92 109 147 68 -45 184 -135 85 -58 118 -118 123 -104 39 -39 73 -64 80 -72 67 -58 63 -63 96 279 -20 hstemhm
          15 86 -69 131 248 131 67 127 -127 129 119 128 28 62 callsubr
          -75 132 -27 96 12 134 20 122 -79 71 -70 63 638 101 -100 101 278 99 128 119 -108 109 210 103 -99 99 209 131 -131 132 vstemhm
          3582 104 399 98 170 107 -106 124 71 85 hintmask 001001000000000111011011001101001101101011101000
          325 -106 callsubr
          -54 549 rmoveto
          -119 124 117 91 rlineto
          -139 hlineto
          hintmask 010001000001000010111010101101001101101011101000
          -85 -81 rlineto
          81 -131 -215 131 60 vlineto
          27 19 62 -79 rlineto
          870 -572 rmoveto
          -2 89 4 91 -15 88 rrcurveto
          87 -16 -49 107 -103 hhcurveto
          -85 -62 -60 -56 -49 hvcurveto
          hintmask 010001000100000010111011001101001101101011101000
          16 147 rlineto
          -209 hlineto
          hintmask 010001000000010010111011001101001101101011101000
          -87 112 -77 callsubr
          hintmask 010001000010000010111010101101001101101011101000
          -60 callsubr
          hintmask 010001001000000010111011001101001101101011101000
          1 callgsubr
          hintmask 010001001000000010111010101101001101101011101000
          -471 572 rmoveto
          215 -131 -215 vlineto
          574 hmoveto
          215 -128 -128 vlineto
          -101 128 rlineto
          -147 -215 hlineto
          hintmask 000101010000000010110111001101001101101011101000
          129 129 hlineto
          104 -129 rlineto
          500 -465 rmoveto
          23 callgsubr
          hintmask 000101010000000010111011001110001101101011101000
          47 -10 8 -51 -41 vvcurveto
          -42 -14 -92 -58 11 callsubr
          -38 78 callsubr
          -114 -36 -99 -87 -60 46 -182 120 62 38 30 45 38 hvcurveto
          hintmask 010001001000000010111011001100101101101011101000
          2 -75 rlineto
          hintmask 010000100000000010111010010110001101101011101000
          78 265 hlineto
          -276 362 rmoveto
          -19 -28 -1 -13 -13 -27 2 18 vhcurveto
          104 vlineto
          19 26 1 14 14 27 0 -20 vhcurveto
          134 -8 rmoveto
          67 -132 0 -43 -64 -79 -1 -60 -27 vhcurveto
          -2 -2 -2 -2 vvcurveto
          -89 vlineto
          -64 129 -1 43 41 134 0 65 vhcurveto
          751 -340 rmoveto
          106 -13 -42 115 -135 hhcurveto
          -82 -71 -83 callgsubr
          hintmask 010001000000001010111011001101001101101011101000
          79 53 118 92 vhcurveto
          hintmask 100000100000000010111011001101001101101011101000
          64 28 -67 -54 6 hvcurveto
          488 -96 rmoveto
          -60 -43 -74 -66 vhcurveto
          hintmask 100001000000100010111011001101010101101011101000
          -84 callgsubr
          -74 hvcurveto
          99 21 rmoveto
          99 -183 160 -69 -139 -88 -117 -132 -135 110 -103 137 123 109 104 124 vhcurveto
          901 -182 rmoveto
          hintmask 010001000100000010111011001101001101100111101000
          1 17 72 callgsubr
          -68 -61 -55 -57 -30 vhcurveto
          hintmask 010001001000000010111011001101001101101011101000
          54 -37 30 callgsubr
          -11 144 -222 -125 47 -86 rlineto
          hintmask 010001001000000010111011001101001110101011101000
          106 47 rlineto
          -371 vlineto
          121 5 rlineto
          -1 5 callgsubr
          hintmask 100001001000000010111011001101001101011011101000
          1 -61 2 -62 1 -61 107 13 rcurveline
          -8 219 rlineto
          65 30 88 38 callsubr
          547 294 -95 callsubr
          88 77 29 callgsubr
          -48 28 vhcurveto
          112 -51 rmoveto
          -93 callgsubr
          -146 115 -123 148 82 callgsubr
          hintmask 001001001000000010111011001101001101101011101000
          -76 callsubr
          41 52 -33 hvcurveto
          hintmask 000011001000000010111011001101001101101011101000
          566 -49 30 callsubr
          hintmask 000011000000000110111011001101001101101011011000
          48 15 -60 -34 -42 -24 -89 -55 37 callsubr
          -124 63 -119 134 47 38 25 41 22 hvcurveto
          11 -81 rlineto
          78 283 hlineto
          396 -41 15 callgsubr
          hintmask 001001000000100010111011001101001101101011101000
          -101 callsubr
          -5 callsubr
          endchar
        </CharString>
        <CharString name="uogonek">
          -58 callsubr
        </CharString>
        <CharString name="uring">
          -75 callgsubr
        </CharString>
        <CharString name="utilde">
          -75 callsubr
        </CharString>
        <CharString name="v">
          -71 -21 21 484 -20 hstem
          373 18 callgsubr
        </CharString>
        <CharString name="w">
          181 73 callgsubr
          hstem
          733 -64 callsubr
          endchar
        </CharString>
        <CharString name="wcircumflex">
          181 73 callgsubr
          23 26 callsubr
          733 -64 callsubr
          hintmask 00110000
          -42 624 -98 callsubr
        </CharString>
        <CharString name="x">
          -33 -10 21 506 -20 hstem
          496 62 rmoveto
          -173 206 24 26 27 40 21 29 rlinecurve
          68 92 -78 58 -126 -165 -120 169 -71 -67 129 -175 -167 -213 69 -67 160 196 162 -201 rlineto
          endchar
        </CharString>
        <CharString name="y">
          -35 21 callgsubr
          hstem
          -52 callgsubr
          endchar
        </CharString>
        <CharString name="yacute">
          -35 21 callgsubr
          102 -69 callsubr
          hintmask 11101100
          -52 callgsubr
          hintmask 11011100
          -263 122 -90 callgsubr
        </CharString>
        <CharString name="ycircumflex">
          -35 21 callgsubr
          122 26 callsubr
          -52 callgsubr
          hintmask 00110000
          -96 202 -98 callsubr
        </CharString>
        <CharString name="ydieresis">
          -35 21 callgsubr
          114 -51 callgsubr
          138 -4 callgsubr
          hintmask 1100000000000000
          -52 callgsubr
          hintmask 0011111001000000
          -263 42 callsubr
        </CharString>
        <CharString name="yen">
          -38 -195 21 195 -21 96 85 -39 86 85 87 64 -20 60 -20 hstemhm
          hintmask 11011110
          485 321 rmoveto
          -73 -3 25 49 26 54 24 59 rlinecurve
          -103 24 -109 -268 -153 261 -100 -33 97 -147 -75 7 rlineto
          -87 vlineto
          132 -6 31 -46 rlineto
          -6 hlineto
          -141 -7 -11 -84 rlineto
          hintmask 11101110
          57 57 2 58 hhcurveto
          -12 -96 108 2 8 95 rlineto
          18 hlineto
          41 43 -3 -2 41 hvcurveto
          9 86 -132 6 18 40 26 3 96 8 rlineto
          endchar
        </CharString>
        <CharString name="z">
          -82 -13 callgsubr
        </CharString>
        <CharString name="zacute">
          -82 -22 callsubr
          -220 9 callsubr
        </CharString>
        <CharString name="zcaron">
          -82 -3 callgsubr
          111 21 128 -20 -72 callsubr
          hintmask 00001100
          -344 3 callgsubr
        </CharString>
        <CharString name="zdotaccent">
          -82 -3 callgsubr
          104 -51 callgsubr
          197 -12 callgsubr
          -148 42 callgsubr
        </CharString>
        <CharString name="zero">
          -107 1 83 -82 82 389 91 hstemhm
          9 111 -100 111 204 100 hintmask 01101100
          335 263 rmoveto
          -54 -26 -125 -72 vhcurveto
          hintmask 01110100
          -103 -14 119 79 55 15 136 76 98 26 -172 -38 hvcurveto
          100 42 rmoveto
          116 -124 143 -96 -152 -54 -193 -110 -134 96 -107 132 -18 vhcurveto
          hintmask 10101100
          1 2 -1 1 hhcurveto
          140 54 190 114 hvcurveto
          endchar
        </CharString>
      <CharString index="0">
        329 -95 callsubr
        87 76 29 callgsubr
        -47 29 vhcurveto
        112 -51 rmoveto
        -93 callgsubr
        -146 115 -123 148 41 callsubr
        return
      </CharString>
      <CharString index="1">
        86 rmoveto
        -61 63 88 -26 86 hhcurveto
        113 48 60 98 14 -9 21 -7 12 hvcurveto
        -35 62 -56 27 -70 4 rrcurveto
        -34 2 -36 7 42 vvcurveto
        47 41 25 43 44 43 -26 -25 34 vhcurveto
        59 64 rlineto
        46 -44 -58 24 -63 hhcurveto
        -56 -142 -41 -100 -44 27 -77 46 -15 hvcurveto
        49 -16 111 11 -72 vvcurveto
        -44 -20 -25 -45 -58 -69 42 39 -41 vhcurveto
        return
      </CharString>
      <CharString index="2">
        -71 -26 -90 -172 -89 hhcurveto
        -75 -3 142 48 65 6 64 9 64 hvcurveto
        -100 -3 rlineto
        -6 -67 -6 -67 -68 vvcurveto
        -96 13 -171 130 87 67 56 62 54 vhcurveto
        -13 return
      </CharString>
      <CharString index="3">
        -87 callgsubr
        100 22 rmoveto
        117 -205 144 -50 -145 -79 -132 -119 -135 109 -103 137 123 110 104 124 vhcurveto
        return
      </CharString>
      <CharString index="4">
        397 -107 callgsubr
        return
      </CharString>
      <CharString index="5">
        127 rmoveto
        -17 -40 -45 -14 -44 hhcurveto
        -97 -59 70 94 78 45 83 87 48 46 -24 -28 37 hvcurveto
        59 64 rlineto
        45 -45 -61 25 -64 hhcurveto
        -133 -126 -100 -139 -150 122 -113 140 -68 callgsubr
        return
      </CharString>
      <CharString index="6">
        243 rmoveto
        -56 -29 -81 -67 -74 -53 73 69 55 31 76 64 73 55 -66 -70 vhcurveto
        -266 -559 rmoveto
        -25 45 65 -6 51 hhcurveto
        102 77 47 110 94 -94 53 -84 -44 -56 -14 -33 -31 hvcurveto
        -1 3 0 4 4 vvcurveto
        return
      </CharString>
      <CharString index="7">
        81 callsubr
        -101 callsubr
        return
      </CharString>
      <CharString index="8">
        304 rmoveto
        108 -13 -41 113 -138 hhcurveto
        -81 -70 -83 callgsubr
        79 53 118 92 64 28 -67 -54 6 vhcurveto
        return
      </CharString>
      <CharString index="9">
        -268 -26 callsubr
        24 21 574 -11 callsubr
        hintmask 0001100100000000
        -83 callsubr
        hintmask 0001110000000000
        25 callgsubr
        hintmask 0001100100000000
        -90 4 rlineto
        hintmask 0001110000000000
        -57 callsubr
        hintmask 0001101000000000
        54 -9 rlineto
        hintmask 0001100010000000
        -12 callsubr
        hintmask 1010000000000000
        return
      </CharString>
      <CharString index="10">
        263 -88 callgsubr
        232 -228 -20 callgsubr
        return
      </CharString>
      <CharString index="11">
        rmoveto
        -90 -19 -89 -27 -89 -26 rrcurveto
        -1 5 0 6 5 vvcurveto
        return
      </CharString>
      <CharString index="12">
        111 -47 -84 120 -135 -91 callsubr
        return
      </CharString>
      <CharString index="13">
        21 128 85 callsubr
        hintmask 11001100
        -105 callsubr
        hintmask 00110000
        return
      </CharString>
      <CharString index="14">
        122 -28 -80 101 -133 hhcurveto
        -129 -115 -98 -133 return
      </CharString>
      <CharString index="15">
        408 -102 callgsubr
        return
      </CharString>
      <CharString index="16">
        363 -102 callsubr
        return
      </CharString>
      <CharString index="17">
        rmoveto
        159 102 -79 64 -126 -120 rlineto
        endchar
      </CharString>
      <CharString index="18">
        464 rmoveto
        -111 -319 -153 311 -100 -39 207 -370 -38 -80 -24 -52 -95 -15 rlinecurve
        36 -95 165 47 36 49 180 534 rlinecurve
        return
      </CharString>
      <CharString index="19">
        rmoveto
        -60 -91 -113 -51 -52 -30 42 48 76 72 25 64 25 41 -5 -13 22 vhcurveto
        return
      </CharString>
      <CharString index="20">
        -84 callgsubr
        -75 hvcurveto
        return
      </CharString>
      <CharString index="21">
        10 rmoveto
        159 -4 22 303 -199 hhcurveto
        -83 -64 -60 -56 -49 hvcurveto
        17 147 rlineto
        -208 hlineto
        return
      </CharString>
      <CharString index="22">
        -81 callsubr
        104 94 87 98 25 hvcurveto
        return
      </CharString>
      <CharString index="23">
        -99 -71 85 95 71 42 83 81 84 72 -126 return
      </CharString>
      <CharString index="24">
        -75 -68 -34 hvcurveto
        -19 128 -102 -15 72 -485 116 23 -25 168 rlineto
        -1 9 -1 9 9 vvcurveto
        return
      </CharString>
      <CharString index="25">
        360 -102 callsubr
        return
      </CharString>
      <CharString index="26">
        334 1 89 -77 -24 callgsubr
        70 -70 90 79 callsubr
        216 114 hintmask 0101010110000000
        832 278 rmoveto
        122 -28 -81 101 -133 hhcurveto
        -67 -65 -28 -47 -47 hvcurveto
        hintmask 0101001110000000
        47 -48 -58 48 -71 -91 callsubr
        hintmask 0011010110000000
        -81 callsubr
        82 85 54 72 38 hvcurveto
        hintmask 1001010110000000
        -87 46 84 -51 99 hhcurveto
        41 callsubr
        -128 80 -88 callgsubr
        375 66 -96 callgsubr
        hintmask 0100100110000000
        10 callgsubr
      </CharString>
      <CharString index="27">
        -31 -25 26 -42 hhcurveto
        -42 -35 -23 -38 -18 hvcurveto
        49 -38 rlineto
        17 10 20 20 21 hhcurveto
        return
      </CharString>
      <CharString index="28">
        -71 callsubr
        2 34 5 19 -1 34 rlinecurve
        return
      </CharString>
      <CharString index="29">
        -67 callgsubr
        1 42 9 22 7 42 rrcurveto
        return
      </CharString>
      <CharString index="30">
        391 1 89 -88 72 -53 -21 408 91 -68 68 -25 callgsubr
        hintmask 01010011
        892 278 rmoveto
        118 -27 -78 103 -130 hhcurveto
        -93 -86 -56 -85 -38 hvcurveto
        51 -50 -78 81 -56 hhcurveto
        hintmask 10010101
        -145 -79 -132 -119 -138 111 -100 139 81 67 35 73 37 hvcurveto
        hintmask 00110011
        -70 47 71 -39 85 hhcurveto
        62 60 20 27 55 hvcurveto
        34 callgsubr
        hintmask 10010011
        -88 callsubr
        -122 24 rmoveto
        hintmask 01010011
        6 callgsubr
        vhcurveto
        hintmask 01010101
        -87 callgsubr
        369 122 -96 callgsubr
        hintmask 01001011
        10 callgsubr
      </CharString>
      <CharString index="31">
        4 18 callsubr
        27 99 -98 100 269 123 -103 103 hintmask 0111111010100000
        481 678 rmoveto
        -73 -24 -41 45 -55 32 -61 8 rlinecurve
        -83 -44 59 -3 52 -25 44 -39 rlinecurve
        -111 -37 40 -63 108 49 38 -56 16 -78 3 -66 rlinecurve
        35 -54 -70 74 -55 hhcurveto
        hintmask 0111111101000000
        -130 -81 -124 -117 hvcurveto
        hintmask 1011111011000000
        -143 108 -101 141 126 99 111 121 15 vhcurveto
        4 30 0 31 30 vvcurveto
        90 -25 106 -46 78 vhcurveto
        67 24 rlineto
        hintmask 0111111101000000
        -390 -362 rmoveto
        69 40 76 77 100 54 -104 -81 vhcurveto
        hintmask 1011111011000000
        -57 -30 -87 -69 vhcurveto
        hintmask 0111111101000000
        -101 -71 87 97 hvcurveto
        endchar
      </CharString>
      <CharString index="32">
        -51 callsubr
        107 19 callsubr
        26 97 77 52 88 52 hintmask 1010001000000000
        -107 callsubr
        hintmask 0110001000000000
        -82 callsubr
        hintmask 0000110110000000
        -236 285 7 callgsubr
        hintmask 0001000110000000
        52 callsubr
        hintmask 0000110110000000
        -62 callsubr
      </CharString>
      <CharString index="33">
        -382 19 12 callsubr
        hintmask 11001000
        -13 callsubr
        hintmask 11010000
        -100 callsubr
        hintmask 11001000
        -71 callgsubr
        hintmask 11100000
        -99 -107 hlineto
        endchar
      </CharString>
      <CharString index="34">
        -67 -2 -67 -1 -67 vhcurveto
        -1 -70 -43 -117 -24 -65 91 -39 rcurveline
        36 81 35 106 90 65 1 64 65 vvcurveto
        return
      </CharString>
      <CharString index="35">
        50 47 hhcurveto
        49 76 -53 -49 11 hvcurveto
        12 -31 -36 5 -33 hhcurveto
        return
      </CharString>
      <CharString index="36">
        -71 callsubr
        rlineto
        2 34 4 19 34 vvcurveto
        -5 290 rmoveto
        93 vlineto
        return
      </CharString>
      <CharString index="37">
        -87 48 callsubr
        43 36 callsubr
        hstemhm
        71 99 34 98 2 113 hintmask 00111010
        -105 callsubr
        hintmask 11000100
        77 -242 -65 callgsubr
      </CharString>
      <CharString index="38">
        6 99 rlineto
        -375 hlineto
        -16 -52 rlineto
        277 hlineto
        -124 -121 -166 -155 rlineto
        return
      </CharString>
      <CharString index="39">
        62 60 19 27 55 hvcurveto
        return
      </CharString>
      <CharString index="40">
        15 -239 93 17 -13 239 rlineto
        -3 46 -3 26 47 vvcurveto
        return
      </CharString>
      <CharString index="41">
        -51 callsubr
        111 21 -2 -21 134 -20 33 -87 callsubr
        -293 102 8 callgsubr
        hintmask 00001100
        27 callgsubr
        rlineto
        hintmask 00010010
        26 callgsubr
      </CharString>
      <CharString index="42">
        rmoveto
        18 -13 38 -29 -25 vvcurveto
        -19 -23 -6 -15 -6 -6 1 1 -6 vhcurveto
        30 -89 rlineto
        5 hlineto
        53 66 33 60 66 -81 51 -51 26 hvcurveto
        endchar
      </CharString>
      <CharString index="43">
        -51 callsubr
        105 -51 callgsubr
        26 97 36 -4 callgsubr
        hintmask 1010000100000000
        -107 callsubr
        hintmask 0110000100000000
        -82 callsubr
        hintmask 0001111010010000
        -278 123 -55 callgsubr
        hintmask 0001111001100000
        -40 callsubr
      </CharString>
      <CharString index="44">
        0 callsubr
        74 21 -2 -21 134 -20 33 -2 callgsubr
        hintmask 1100000110000000
        -67 callsubr
        hintmask 1100001010000000
        -104 callgsubr
        hintmask 0010100000000000
        -345 338 8 callgsubr
        hintmask 0001100000000000
        27 callgsubr
        rlineto
        hintmask 0010010000000000
        26 callgsubr
      </CharString>
      <CharString index="45">
        32 callsubr
        77 callgsubr
        71 99 134 113 hintmask 11101111
        -105 callsubr
        hintmask 11011111
        132 396 -90 callgsubr
      </CharString>
      <CharString index="46">
        -45 -126 -94 60 -68 84 102 87 81 89 39 hvcurveto
        return
      </CharString>
      <CharString index="47">
        567 -86 callgsubr
        return
      </CharString>
      <CharString index="48">
        21 11 -21 139 -20 47 -20 return
      </CharString>
      <CharString index="49">
        32 callsubr
        62 -94 callgsubr
        49 482 -80 callsubr
      </CharString>
      <CharString index="50">
        rmoveto
        hintmask 1100000000000000
        -84 callsubr
        endchar
      </CharString>
      <CharString index="51">
        4 53 callgsubr
        -22 68 3 -20 61 75 -65 63 88 -20 hstemhm
        91 99 225 100 -100 101 hintmask 1010101110000000
        296 594 rmoveto
        -106 86 -99 -83 -54 -83 hlineto
        60 1 rlineto
        -8 5 -89 -2 vvcurveto
        -70 -406 24 callsubr
        hintmask 1101011110000000
        -9 callgsubr
        100 hlineto
        hintmask 1010011101000000
        21 callsubr
        hintmask 1101011110000000
        -9 callsubr
        17 147 rlineto
        1 -2 12 2 vvcurveto
        98 2 rlineto
        endchar
      </CharString>
      <CharString index="52">
        rmoveto
        104 -91 -94 vlineto
        return
      </CharString>
      <CharString index="53">
        -51 callsubr
        95 21 4 -21 144 -20 39 -87 callsubr
        -174 135 rmoveto
        hintmask 00010010
        -5 callgsubr
        hintmask 00001100
        15 callsubr
      </CharString>
      <CharString index="54">
        -268 -20 21 81 68 54 63 308 -20 hstemhm
        83 92 -91 91 -90 95 -95 164 hintmask 11110001
        249 277 rmoveto
        hintmask 11110010
        -69 -7 rlineto
        86 vlineto
        88 15 46 callsubr
        hintmask 11110001
        -23 callgsubr
        -83 -49 -83 vlineto
        53 1 6 -85 17 -62 61 -63 rlinecurve
        hintmask 11110001
        77 59 -37 62 -19 30 -9 62 rlinecurve
        65 -3 rlineto
        endchar
      </CharString>
      <CharString index="55">
        389 -89 callgsubr
        return
      </CharString>
      <CharString index="56">
        -44 callgsubr
        hstemhm
        return
      </CharString>
      <CharString index="57">
        -51 callsubr
        93 -69 callsubr
        26 97 hintmask 10110111
        -107 callsubr
        hintmask 01110111
        -82 callsubr
        hintmask 10101111
        -268 92 -90 callgsubr
      </CharString>
      <CharString index="58">
        10 21 309 89 251 80 callsubr
        hintmask 11111000
        515 14 rmoveto
        hintmask 11110100
        -90 callsubr
        endchar
      </CharString>
      <CharString index="59">
        -26 callgsubr
        61 14 callgsubr
        return
      </CharString>
      <CharString index="60">
        112 rmoveto
        -64 -20 72 53 58 36 48 61 64 39 -51 -61 -60 -55 -59 -61 hvcurveto
        219 126 rmoveto
        99 -93 109 -102 -44 -39 -21 -31 -30 vhcurveto
        return
      </CharString>
      <CharString index="61">
        -14 callsubr
        96 -51 callgsubr
        -35 14 callsubr
        -13 41 callgsubr
        -24 14 callsubr
        hintmask 1100000001000000
        -13 callsubr
        hintmask 1100000010000000
        -100 callsubr
        hintmask 1100000001000000
        -79 callgsubr
        hintmask 0011111000010000
        -78 309 -55 callgsubr
        hintmask 0011110100100000
        -40 callsubr
      </CharString>
      <CharString index="62">
        -51 callsubr
        55 40 callgsubr
        26 97 hintmask 10110110
        -107 callsubr
        hintmask 01110110
        -82 callsubr
        hintmask 10111010
        -94 230 -27 callsubr
      </CharString>
      <CharString index="63">
        21 30 -21 74 -20 50 -20 return
      </CharString>
      <CharString index="64">
        45 callgsubr
        18 68 39 80 -65 63 -25 callgsubr
        hintmask 1011010110000000
        -67 callsubr
        hintmask 1011011010000000
        -104 callgsubr
        hintmask 0111100110000000
        -106 466 -27 callsubr
      </CharString>
      <CharString index="65">
        110 rmoveto
        hintmask 1111100010000000
        -80 -57 89 73 74 40 77 82 75 57 -63 -73 -67 -34 -110 -83 hvcurveto
        -35 401 rmoveto
        -31 -37 -8 -30 -16 hvcurveto
        hintmask 1111010010000000
        7 82 -110 13 -16 -273 rlineto
        -3 -54 -5 -30 -53 vvcurveto
        -53 3 -30 2 -53 vhcurveto
        hintmask 1111000110000000
        9 -271 rlineto
        106 hlineto
        -17 336 rlineto
        -44 27 39 -31 53 hhcurveto
        138 87 144 123 hvcurveto
        20 -2 20 20 vvcurveto
        104 -144 68 -90 vhcurveto
        endchar
      </CharString>
      <CharString index="66">
        hintmask 0111000010000000
        -103 callsubr
        hintmask 1011000010000000
        -5 callsubr
        return
      </CharString>
      <CharString index="67">
        -14 callsubr
        84 -69 callsubr
        34 91 -83 41 callgsubr
        hintmask 1110110010000000
        -13 callsubr
        hintmask 1110110100000000
        -100 callsubr
        hintmask 1110110010000000
        -79 callgsubr
        hintmask 1101111000000000
        -108 278 -90 callgsubr
      </CharString>
      <CharString index="68">
        699 -6 callsubr
        hintmask 0000001000000000
        -80 callgsubr
        hintmask 0000100100000000
        -46 callsubr
      </CharString>
      <CharString index="69">
        29 rmoveto
        -241 294 138 97 73 72 -72 56 -32 -30 -31 -32 -33 -29 rlinecurve
        -116 -95 -45 312 -87 -14 23 -210 rlineto
        return
      </CharString>
      <CharString index="70">
        38 36 46 26 26 vhcurveto
        -7 24 25 -6 26 hhcurveto
        return
      </CharString>
      <CharString index="71">
        -6 -26 callsubr
        54 70 callgsubr
        hstemhm
        hintmask 00011000
        -97 callsubr
        hintmask 10100000
        -268 -548 -4 callsubr
      </CharString>
      <CharString index="72">
        -89 -61 -54 -59 -59 hvcurveto
        54 -56 rlineto
        29 return
      </CharString>
      <CharString index="73">
        48 callgsubr
        40 26 callsubr
        -97 callsubr
        hintmask 00110000
        -344 339 -80 callsubr
      </CharString>
      <CharString index="74">
        -14 callsubr
        104 -25 callsubr
        42 41 callgsubr
        hintmask 11000100
        -13 callsubr
        hintmask 11001000
        -100 callsubr
        hintmask 11000100
        -79 callgsubr
        hintmask 00110000
        89 358 -98 callsubr
      </CharString>
      <CharString index="75">
        726 rmoveto
        -58 -134 -36 -140 -146 vvcurveto
        -157 41 -146 57 -144 vhcurveto
        93 39 rlineto
        -66 126 -37 141 143 vvcurveto
        138 33 135 70 119 vhcurveto
        endchar
      </CharString>
      <CharString index="76">
        29 -197 21 188 103 403 -20 hstemhm
        57 109 -94 94 237 100 -94 103 hintmask 11101100
        72 -197 rmoveto
        96 16 -3 233 rlineto
        -21 39 46 -19 45 hhcurveto
        50 34 25 44 22 hvcurveto
        9 -85 rlineto
        hintmask 11110010
        102 21 rlineto
        501 vlineto
        -103 -2 rlineto
        -2 -84 -3 -85 -84 vvcurveto
        -67 -39 -81 -77 -152 29 264 81 -1 vhcurveto
        hintmask 11101100
        -92 -10 rlineto
        endchar
      </CharString>
      <CharString index="77">
        -32 87 -60 -15 rlineto
        -2 17 0 17 17 vvcurveto
        return
      </CharString>
      <CharString index="78">
        46 13 -24 callgsubr
        90 return
      </CharString>
      <CharString index="79">
        -47 callgsubr
        hintmask 10110110
        29 callsubr
        -68 -4 -66 -6 -73 rlinecurve
        hintmask 01111010
        -15 -175 71 -17 22 77 rlineto
        hintmask 10110101
        -45 23 39 -28 51 hhcurveto
        104 125 117 105 hvcurveto
        endchar
      </CharString>
      <CharString index="80">
        55 -50 23 -48 -15 -16 -2 -3 -15 vhcurveto
        -33 -6 -53 10 -23 -24 -22 -23 3 -31 -9 -28 94 -15 rcurveline
        30 2 8 25 35 hhcurveto
        18 36 -9 -23 hvcurveto
        -2 -1 -2 -2 -2 0 -2 -2 vvcurveto
        -14 -10 -13 -5 -13 vhcurveto
        -1 hlineto
        -8 -61 -45 -6 -8 hvcurveto
        -33 -25 -52 -46 -39 -9 2 -8 -9 vvcurveto
        -15 -4 -15 -7 -14 vhcurveto
        return
      </CharString>
      <CharString index="81">
        -347 82 -81 81 0 146 0 76 return
      </CharString>
      <CharString index="82">
        hstemhm
        32 -22 callgsubr
        return
      </CharString>
      <CharString index="83">
        21 -21 77 191 68 0 82 0 return
      </CharString>
      <CharString index="84">
        -90 4 rlineto
        hintmask 11111000
        -57 callsubr
        hintmask 11110100
        54 -9 rlineto
        return
      </CharString>
      <CharString index="85">
        100 -89 100 268 100 return
      </CharString>
      <CharString index="86">
        635 rmoveto
        8 -31 -32 5 -32 hhcurveto
        hintmask 11001100
        -92 -86 -52 -100 -27 8 -26 14 -23 hvcurveto
        -76 -5 rlineto
        hintmask 10011001
        -87 vlineto
        hintmask 10011010
        59 callsubr
        hintmask 10101001
        44 callgsubr
        hintmask 11001100
        61 callsubr
        51 19 36 56 34 40 -14 -12 31 vhcurveto
        endchar
      </CharString>
      <CharString index="87">
        rmoveto
        -11 88 -31 86 -35 81 rrcurveto
        return
      </CharString>
      <CharString index="88">
        rmoveto
        -53 -26 -64 -45 -66 vvcurveto
        -66 67 -1 callgsubr
        -31 -38 24 34 47 69 45 35 20 hvcurveto
        endchar
      </CharString>
      <CharString index="89">
        560 19 callsubr
        53 52 88 52 hintmask 01111000
        145 750 7 callgsubr
        hintmask 10011000
        52 callsubr
        hintmask 01111000
        -62 callsubr
      </CharString>
      <CharString index="90">
        44 10 21 -18 72 192 69 85 90 return
      </CharString>
      <CharString index="91">
        108 211 4 callgsubr
        return
      </CharString>
      <CharString index="92">
        30 24 13 22 12 41 rrcurveto
        64 -29 -57 27 -74 hhcurveto
        -52 -51 -50 -58 -12 hvcurveto
        87 -11 rlineto
        33 1 23 11 29 hhcurveto
        15 19 -7 -18 -31 -19 -14 -31 -5 -5 0 1 -5 hvcurveto
        -14 -73 rlineto
        1 12 13 3 12 hhcurveto
        5 5 -1 -3 4 hvcurveto
        1 5 4 1 5 hhcurveto
        return
      </CharString>
      <CharString index="93">
        -99 35 -103 -297 rlineto
        41 -39 -64 18 -56 hhcurveto
        -119 -26 -88 -80 return
      </CharString>
      <CharString index="94">
        -3 callgsubr
        -72 callsubr
        endchar
      </CharString>
      <CharString index="95">
        14 callsubr
        hintmask 0110111101000000
        436 90 rmoveto
        hintmask 1010111101000000
        -11 callgsubr
        hintmask 0101111101000000
        -69 callgsubr
        hintmask 1010111101000000
        39 callgsubr
        hintmask 0110111110000000
        return
      </CharString>
      <CharString index="96">
        -306 15 96 87 99 84 102 79 rlinecurve
        return
      </CharString>
      <CharString index="97">
        -37 -31 38 29 -17 hvcurveto
        endchar
      </CharString>
      <CharString index="98">
        24 27 44 34 38 hhcurveto
        103 -13 -257 -69 4 hvcurveto
        return
      </CharString>
      <CharString index="99">
        28 callsubr
        116 89 vstem
        13 -32 callsubr
      </CharString>
      <CharString index="100">
        -16 callsubr
        hintmask 0001011000000000
        -45 callsubr
        hintmask 0001010010000000
        -78 callgsubr
        hintmask 0001100100000000
        hintmask 1010000000000000
        return
      </CharString>
      <CharString index="101">
        1 89 341 70 return
      </CharString>
      <CharString index="102">
        -110 115 -85 -56 rlineto
        return
      </CharString>
      <CharString index="103">
        14 callsubr
        55 14 callsubr
        return
      </CharString>
      <CharString index="104">
        0 105 -99 91 285 105 -85 52 return
      </CharString>
      <CharString index="105">
        -20 -25 callgsubr
        return
      </CharString>
      <CharString index="106">
        -50 62 vhcurveto
        4 7 callsubr
        return
      </CharString>
      <CharString index="107">
        16 114 rlineto
        -114 hlineto
        -10 -93 rlineto
        return
      </CharString>
      <CharString index="108">
        -39 -4 -39 -1 -39 vhcurveto
        return
      </CharString>
      <CharString index="109">
        -16 callsubr
        hintmask 11101100
        -45 callsubr
        hintmask 11101001
        -67 callgsubr
        42 11 22 6 42 vhcurveto
        hintmask 11010010
        return
      </CharString>
      <CharString index="110">
        643 -80 callsubr
      </CharString>
      <CharString index="111">
        86 -81 86 -79 74 -74 80 return
      </CharString>
      <CharString index="112">
        73 -1 74 73 vvcurveto
        60 29 92 74 85 22 -123 -63 1 vhcurveto
        return
      </CharString>
      <CharString index="113">
        -60 -42 -73 -67 return
      </CharString>
      <CharString index="114">
        rmoveto
        -51 -41 -39 -51 -63 36 -36 63 hvcurveto
        return
      </CharString>
      <CharString index="115">
        rmoveto
        109 104 -80 35 -88 -116 rlineto
        return
      </CharString>
      <CharString index="116">
        -211 28 callgsubr
        256 65 callgsubr
        -87 -11 rmoveto
        87 212 -124 -33 callsubr
        endchar
      </CharString>
      <CharString index="117">
        71 58 87 76 29 callgsubr
        -47 29 vhcurveto
        endchar
      </CharString>
      <CharString index="118">
        -108 -41 -90 -96 -63 49 -179 118 62 38 30 45 37 hvcurveto
        2 -75 rlineto
        return
      </CharString>
      <CharString index="119">
        -6 callgsubr
        57 -51 callgsubr
        return
      </CharString>
      <CharString index="120">
        147 35 callgsubr
        25 -3 14 -1 25 vhcurveto
        return
      </CharString>
      <CharString index="121">
        88 273 85 -24 90 return
      </CharString>
      <CharString index="122">
        -94 callsubr
        81 callsubr
        return
      </CharString>
      <CharString index="123">
        882 -86 callsubr
        hintmask 0000000110000000
        -10 callgsubr
      </CharString>
      <CharString index="124">
        hstemhm
        29 -16 callgsubr
        return
      </CharString>
      <CharString index="125">
        484 rmoveto
        -124 -358 -149 330 -100 -39 197 -438 126 37 52 146 52 146 49 147 rlinecurve
        endchar
      </CharString>
      <CharString index="126">
        4 -41 8 -23 -41 vvcurveto
        -43 -4 -25 -3 -43 vhcurveto
        return
      </CharString>
      <CharString index="127">
        97 -86 95 -83 74 return
      </CharString>
      <CharString index="128">
        -195 21 638 -20 return
      </CharString>
      <CharString index="129">
        252 -94 callsubr
        return
      </CharString>
      <CharString index="130">
        -66 -28 66 57 56 45 57 63 hvcurveto
        3 hlineto
        return
      </CharString>
      <CharString index="131">
        89 -12 rlineto
        285 vlineto
        272 -317 rlineto
        return
      </CharString>
      <CharString index="132">
        26 1 26 25 vvcurveto
        return
      </CharString>
      <CharString index="133">
        -80 57 -106 -117 rlineto
        endchar
      </CharString>
      <CharString index="134">
        192 -28 rmoveto
        130 90 return
      </CharString>
      <CharString index="135">
        458 49 callgsubr
        hstem
        return
      </CharString>
      <CharString index="136">
        61 45 -55 return
      </CharString>
      <CharString index="137">
        -51 53 -70 hhcurveto
        -72 -51 -45 -59 -35 hvcurveto
        return
      </CharString>
      <CharString index="138">
        -94 29 -111 -289 rlineto
        40 return
      </CharString>
      <CharString index="139">
        -16 -6 callgsubr
        return
      </CharString>
      <CharString index="140">
        1 -21 2 -12 -22 vvcurveto
        return
      </CharString>
      <CharString index="141">
        -47 80 rlineto
        return
      </CharString>
      <CharString index="142">
        279 rmoveto
        return
      </CharString>
      <CharString index="143">
        63 callgsubr
        97 return
      </CharString>
      <CharString index="144">
        -6 -15 -11 -10 -16 -12 -14 rlinecurve
        -19 -21 -37 -20 -27 -8 -1 -63 rcurveline
        41 12 38 4 26 40 return
      </CharString>
      <CharString index="145">
        rmoveto
        -56 -171 112 18 24 138 rlineto
        endchar
      </CharString>
      <CharString index="146">
        -126 407 vlineto
        return
      </CharString>
      <CharString index="147">
        68 39 55 callsubr
        return
      </CharString>
      <CharString index="148">
        90 -90 92 return
      </CharString>
      <CharString index="149">
        588 -43 callsubr
      </CharString>
      <CharString index="150">
        405 -55 callgsubr
        hintmask 0011110011000000
        -40 callsubr
      </CharString>
      <CharString index="151">
        76 8 rlineto
        86 vlineto
        -96 -2 rlineto
        return
      </CharString>
      <CharString index="152">
        -11 1 73 -72 72 334 82 return
      </CharString>
      <CharString index="153">
        84 -84 95 -92 81 return
      </CharString>
      <CharString index="154">
        -26 callsubr
        54 44 callsubr
        hstemhm
        return
      </CharString>
      <CharString index="155">
        -6 10 70 callgsubr
        return
      </CharString>
      <CharString index="156">
        21 191 -20 return
      </CharString>
      <CharString index="157">
        109 -109 134 -122 99 -97 89 260 84 hintmask 1111001010000000
        return
      </CharString>
      <CharString index="158">
        109 -89 119 -99 89 return
      </CharString>
      <CharString index="159">
        hstemhm
        17 callsubr
        return
      </CharString>
      <CharString index="160">
        10 21 309 89 return
      </CharString>
      <CharString index="161">
        29 callsubr
        -92 -7 -91 -7 -86 rlinecurve
        return
      </CharString>
      <CharString index="162">
        -76 -54 -78 -71 -94 62 -69 97 hvcurveto
        return
      </CharString>
      <CharString index="163">
        -23 -300 107 -13 15 252 rlineto
        -42 22 34 -29 49 hhcurveto
        return
      </CharString>
      <CharString index="164">
        -70 -171 21 160 102 231 103 227 -20 hstemhm
        return
      </CharString>
      <CharString index="165">
        -10 callsubr
        20 21 -13 -20 718 -20 hstemhm
        return
      </CharString>
      <CharString index="166">
        -20 25 78 callgsubr
        146 return
      </CharString>
      <CharString index="167">
        89 -85 84 -82 83 162 75 return
      </CharString>
      <CharString index="168">
        21 671 84 callgsubr
        return
      </CharString>
      <CharString index="169">
        -364 -192 21 return
      </CharString>
      <CharString index="170">
        -20 hstemhm
        26 return
      </CharString>
      <CharString index="171">
        670 rmoveto
        -75 -212 112 18 29 183 rlineto
        return
      </CharString>
      <CharString index="172">
        458 71 callgsubr
        return
      </CharString>
      <CharString index="173">
        -86 -126 -13 hvcurveto
        -28 6 rlineto
        -96 35 vlineto
        1 -2 return
      </CharString>
      <CharString index="174">
        101 252 110 -109 93 -37 126 vstem
        return
      </CharString>
      <CharString index="175">
        -261 21 256 93 298 88 28 -20 hstem
        return
      </CharString>
      <CharString index="176">
        -249 21 240 98 313 88 57 -20 hstemhm
        return
      </CharString>
      <CharString index="177">
        21 394 100 return
      </CharString>
      <CharString index="178">
        rmoveto
        -84 callsubr
        return
      </CharString>
      <CharString index="179">
        0 16 17 vvcurveto
        137 -24 269 -195 return
      </CharString>
      <CharString index="180">
        13 21 529 -20 return
      </CharString>
      <CharString index="181">
        hhcurveto
        hintmask 11011101
        -146 -78 -130 -120 return
      </CharString>
      <CharString index="182">
        84 callgsubr
        hstemhm
        34 20 callgsubr
        return
      </CharString>
      <CharString index="183">
        -20 26 87 callgsubr
        return
      </CharString>
      <CharString index="184">
        43 -69 callsubr
        return
      </CharString>
      <CharString index="185">
        -20 hstemhm
        hintmask 10100000
        return
      </CharString>
      <CharString index="186" raw="1">
        77de0a0b   
      </CharString>
      <CharString index="187">
        123 588 -55 callgsubr
        return
      </CharString>
      <CharString index="188">
        -371 27 callsubr
        return
      </CharString>
      <CharString index="189">
        -68 callgsubr
        34 callgsubr
        return
      </CharString>
      <CharString index="190">
        102 118 128 100 hvcurveto
        endchar
      </CharString>
      <CharString index="191">
        -20 26 -20 return
      </CharString>
      <CharString index="192">
        42 42 hlineto
        hintmask 11101001
        41 83 hlineto
        return
      </CharString>
      <CharString index="193">
        -20 hstemhm
        52 46 callgsubr
        return
      </CharString>
      <CharString index="194">
        -20 hstemhm
        19 20 callgsubr
        return
      </CharString>
      <CharString index="195">
        vlineto
        hintmask 1010101101010101
        return
      </CharString>
      <CharString index="196">
        42 0 41 0 42 return
      </CharString>
      <CharString index="197">
        -112 -18 -29 return
      </CharString>
      <CharString index="198">
        0 42 0 return
      </CharString>
</ttFont>
